<?xml version="1.0" encoding="UTF-8"?>
<svg xmlns="http://www.w3.org/2000/svg" xmlns:xlink="http://www.w3.org/1999/xlink" version="1.1" viewBox="0 0 48.7 47.2">
  <!-- Generator: Adobe Illustrator 29.0.0, SVG Export Plug-In . SVG Version: 2.1.0 Build 186)  -->
  <defs>
    <style>
      .st0 {
        fill: url(#linear-gradient);
      }

      .st1 {
        fill: #416f46;
      }

      .st2 {
        fill: #fff;
        stroke: #000;
        stroke-miterlimit: 10;
      }
    </style>
    <linearGradient id="linear-gradient" x1="11.8" y1="24.8" x2="42.7" y2="20.4" gradientTransform="translate(0 50) scale(1 -1)" gradientUnits="userSpaceOnUse">
      <stop offset="0" stop-color="#def6fe"/>
      <stop offset="1" stop-color="#ade6fd"/>
    </linearGradient>
  </defs>
  <g id="Layer_2">
    <g id="Layer_1-2">
      <path class="st0" d="M25.1,10.2c1.8.9,4.1,2.8,5.8,4.1,2.1,1.5,17.1,13.5,17.5,14.6.4,1,.2,1.7,0,2.7-.8,4.6-9,17.3-14.5,15.5,0,0-1.3-1.1-1.5-1.3,0,0-.2-.5-.2-.5-.7-.7-1.3-1.6-2-2.3-.2-.3-.5-.5-.8-.8-.2-.2-.6-.8-1.5-1.8-.4-.4-.9-.8-1.3-1.3,0,0-.2-.2-.2-.2-.4-.4-.6-.9-1-1.3-.2-.2-.3-.3-.5-.5-.7-.7-1.4-1.3-2-2-1.5-1.5-2.6-2.3-3.3-3-.2-.3-.5-.5-.8-.8-.3-.3-.7-.5-1-.8-1-1-3.6-3.5-3.8-3.8-.9-1.1-1.9-2.6-2.5-3.8-.3-.5-.5-1-.8-1.5-.7-1.6-1.1-3.8-2-5.6-.5-1.1-.9-2.1-1.8-3,1.5-.6,2.3-1.7,3.3-2.8,1.1-1.1,1.9-2,2.8-3.3,2.4,1.6,6.6.8,12.2,3.6h0Z"/>
    </g>
    <path class="st2" d="M6.8,12.7"/>
  </g>
  <g id="Layer_3">
    <path class="st1" d="M7.9,13.7s5.8-4.1,6.1-6.1-2.4-2.3-2.4-2.3l-2.7-2.8-6,5.6s3.4,5.8,5,5.6Z"/>
  </g>
</svg>