<?xml version="1.0" encoding="UTF-8"?>
<svg id="Layer_1" data-name="Layer 1" xmlns="http://www.w3.org/2000/svg" viewBox="0 0 375 157.6">
  <defs>
    <style>
      .cls-1 {
        stroke-width: 7px;
      }

      .cls-1, .cls-2 {
        fill: none;
        stroke: #000;
        stroke-miterlimit: 10;
      }

      .cls-2 {
        stroke-width: 3px;
      }
    </style>
  </defs>
  <rect y="87.81" width="375" height="70"/>
  <g>
    <g>
      <circle class="cls-1" cx="328.61" cy="60.53" r="55.95"/>
      <line class="cls-2" x1="306.64" y1="9.23" x2="350.57" y2="111.83"/>
      <line class="cls-2" x1="276.12" y1="41.16" x2="381.09" y2="79.9"/>
      <line class="cls-2" x1="346.81" y1="11.21" x2="310.4" y2="109.84"/>
      <line class="cls-2" x1="379.26" y1="37.19" x2="277.95" y2="83.87"/>
    </g>
    <line class="cls-1" x1="328.61" y1="61.18" x2="328.61" y2="95.77"/>
  </g>
  <path d="M21.02,102.25l-5.36-15.82s-.42-7.47,0-9.73-3.85-16.86-4.04-18.95c.23-2.09-.31-2.25-.78-2.49s.12-1.84.12-1.84l-.84.28s-.74-2,.09-2.28,7.76-2.12,7.76-2.12c0,0,1.13.31,1.32,1.27l-.75.45s.94.85,1.04,1.15-.31.64-.28.78,8,17.2,8.99,19.41,6.07,8.71,6.45,9.88,6.07,20.8,6.07,20.8l-19.62.52-.14-1.32Z"/>
</svg>