<?xml version="1.0" encoding="UTF-8"?>
<svg id="Layer_1" data-name="Layer 1" xmlns="http://www.w3.org/2000/svg" xmlns:xlink="http://www.w3.org/1999/xlink" viewBox="0 0 375 250">
  <defs>
    <style>
      .cls-1 {
        fill: #54473f;
      }

      .cls-2 {
        fill: #060000;
      }

      .cls-3 {
        fill: #83a34f;
      }

      .cls-4 {
        fill: url(#linear-gradient-2);
      }

      .cls-5 {
        fill: url(#linear-gradient);
      }

      .cls-6 {
        fill: #b39a9c;
      }

      .cls-7 {
        stroke: #f8e1a8;
        stroke-width: 4px;
      }

      .cls-7, .cls-8, .cls-9, .cls-10, .cls-11, .cls-12, .cls-13, .cls-14, .cls-15, .cls-16 {
        stroke-miterlimit: 10;
      }

      .cls-7, .cls-9, .cls-13 {
        fill: none;
      }

      .cls-17 {
        fill: #4683a2;
      }

      .cls-18 {
        fill: #6d1d1b;
      }

      .cls-19 {
        fill: #a83e0c;
      }

      .cls-8, .cls-9, .cls-13 {
        stroke: #f0dfbb;
      }

      .cls-8, .cls-11, .cls-12, .cls-13 {
        stroke-width: 2px;
      }

      .cls-8, .cls-20 {
        fill: #dc2b29;
      }

      .cls-9, .cls-14 {
        stroke-width: 3px;
      }

      .cls-21 {
        fill: #fec479;
      }

      .cls-10, .cls-11 {
        fill: #260c0e;
        stroke: #f4deb6;
      }

      .cls-12 {
        fill: #eeffc9;
        stroke: #fff;
      }

      .cls-22 {
        fill: #74746b;
      }

      .cls-14 {
        fill: #f4ddb3;
        stroke: #f4ddb3;
      }

      .cls-23 {
        fill: #d3eff6;
      }

      .cls-24 {
        fill: #333;
      }

      .cls-25 {
        fill: #d7683b;
      }

      .cls-15 {
        fill: #00525c;
      }

      .cls-15, .cls-16 {
        stroke: #333;
        stroke-width: .5px;
      }

      .cls-16 {
        fill: #33525c;
      }
    </style>
    <linearGradient id="linear-gradient" x1="197.63" y1="196.04" x2="197.63" y2="181.37" gradientUnits="userSpaceOnUse">
      <stop offset="0" stop-color="#fff" stop-opacity="0"/>
      <stop offset=".57" stop-color="#393939" stop-opacity=".97"/>
      <stop offset="1" stop-color="#333"/>
    </linearGradient>
    <linearGradient id="linear-gradient-2" x1="189.89" y1="247.62" x2="189.89" y2="196.04" gradientUnits="userSpaceOnUse">
      <stop offset="0" stop-color="#fff" stop-opacity="0"/>
      <stop offset=".59" stop-color="#8a9ca1" stop-opacity=".3"/>
      <stop offset="1" stop-color="#33525c" stop-opacity=".7"/>
    </linearGradient>
  </defs>
  <rect class="cls-23" x="-49.29" y="-19.8" width="476.89" height="210.26"/>
  <rect class="cls-17" x="-25.85" y="190.71" width="417.32" height="154.16"/>
  <g>
    <polygon class="cls-19" points=".16 82.37 9.29 82.37 9.29 66.18 20.91 66.18 20.91 55.79 29.5 55.79 29.5 66.18 41.43 66.18 41.43 82.12 54.54 82.12 54.54 175.15 .16 175.15 .16 82.37"/>
    <polyline class="cls-7" points=".16 80.82 7.99 80.82 7.99 65 19.92 65 19.92 54.93 30.43 54.93 30.43 64.75 42.11 64.75 42.11 80.82 54.54 80.82"/>
    <polygon class="cls-21" points="54.54 175.15 54.54 39.68 76.09 14.79 76.09 7.37 86.64 7.37 86.64 14.96 107.08 39.02 107.08 175.15 54.54 175.15"/>
    <polyline class="cls-13" points="53.92 38.77 75.1 14.71 75.1 5.89 88.04 5.89 88.04 14.63 107.98 38.61"/>
    <polygon class="cls-18" points="106.2 175.15 169.16 175.15 169.16 32.26 145.76 16.77 145.76 5.89 130.26 5.89 130.26 17.43 107.11 31.6 106.2 175.15"/>
    <polyline class="cls-9" points="106.09 32.26 131.14 17.43 131.14 5.89 146.63 5.89 146.63 16.77 171.37 33.14"/>
  </g>
  <rect class="cls-11" x="2.24" y="138.92" width="19.28" height="37.02"/>
  <g>
    <polygon class="cls-6" points="262.9 85.08 271.84 85.08 271.84 69.23 283.2 69.23 283.2 59.07 291.61 59.07 291.61 69.23 303.28 69.23 303.28 84.83 316.1 84.83 316.1 175.84 262.9 175.84 262.9 85.08"/>
    <polyline class="cls-7" points="262.09 83.83 269.76 83.83 269.76 68.35 281.43 68.35 281.43 58.5 291.71 58.5 291.71 68.11 303.14 68.11 303.14 83.83 315.29 83.83"/>
    <polygon class="cls-20" points="168.77 175.23 168.77 40.5 190.2 15.74 190.2 8.37 200.69 8.37 200.69 15.91 221.02 39.84 221.02 175.23 168.77 175.23"/>
    <polyline class="cls-8" points="168.15 39.59 189.22 15.66 189.22 6.89 202.09 6.89 202.09 15.58 221.92 39.43"/>
    <polygon class="cls-3" points="314.44 175.57 376.03 175.57 376.03 35.78 353.14 20.62 353.14 9.98 337.98 9.98 337.98 21.27 315.32 35.14 314.44 175.57"/>
    <polyline class="cls-9" points="313.47 35.78 337.98 21.27 337.98 9.98 353.14 9.98 353.14 20.62 377.34 36.65"/>
    <rect class="cls-25" x="221.02" y="59.07" width="41.88" height="116.16"/>
  </g>
  <line class="cls-14" x1="262.9" y1="58.5" x2="221.02" y2="58.5"/>
  <rect class="cls-11" x="30.62" y="138.92" width="17.77" height="16.18"/>
  <rect class="cls-11" x="145.3" y="139.9" width="17.77" height="36.03"/>
  <g>
    <rect class="cls-10" x="4.95" y="109.35" width="6.56" height="6.56"/>
    <rect class="cls-10" x="12.26" y="109.35" width="6.56" height="6.56"/>
    <rect class="cls-10" x="4.95" y="116.91" width="6.56" height="6.56"/>
    <rect class="cls-10" x="12.26" y="116.91" width="6.56" height="6.56"/>
  </g>
  <rect class="cls-11" x="174.3" y="140.2" width="17.77" height="36.03"/>
  <g>
    <rect class="cls-10" x="32.56" y="108.85" width="6.56" height="6.56"/>
    <rect class="cls-10" x="39.88" y="108.85" width="6.56" height="6.56"/>
    <rect class="cls-10" x="32.56" y="116.41" width="6.56" height="6.56"/>
    <rect class="cls-10" x="39.88" y="116.41" width="6.56" height="6.56"/>
  </g>
  <rect class="cls-11" x="351.86" y="138.91" width="19.28" height="37.02"/>
  <g>
    <rect class="cls-10" x="18.83" y="84.2" width="6.56" height="6.56"/>
    <rect class="cls-10" x="26.14" y="84.2" width="6.56" height="6.56"/>
    <rect class="cls-10" x="18.83" y="91.76" width="6.56" height="6.56"/>
    <rect class="cls-10" x="26.14" y="91.76" width="6.56" height="6.56"/>
  </g>
  <rect class="cls-11" x="233.08" y="147" width="17.77" height="29.23"/>
  <rect class="cls-11" x="71.92" y="139.9" width="17.77" height="36.03"/>
  <rect class="cls-11" x="292.86" y="138.91" width="19.28" height="37.02"/>
  <rect class="cls-22" x="-2.13" y="174.57" width="377.13" height="21.07"/>
  <g>
    <rect class="cls-10" x="60.84" y="109.1" width="6.56" height="6.56"/>
    <rect class="cls-10" x="68.15" y="109.1" width="6.56" height="6.56"/>
    <rect class="cls-10" x="60.84" y="116.66" width="6.56" height="6.56"/>
    <rect class="cls-10" x="68.15" y="116.66" width="6.56" height="6.56"/>
  </g>
  <g>
    <rect class="cls-10" x="88.45" y="108.6" width="6.56" height="6.56"/>
    <rect class="cls-10" x="95.77" y="108.6" width="6.56" height="6.56"/>
    <rect class="cls-10" x="88.45" y="116.16" width="6.56" height="6.56"/>
    <rect class="cls-10" x="95.77" y="116.16" width="6.56" height="6.56"/>
  </g>
  <g>
    <rect class="cls-10" x="60.84" y="74.01" width="6.56" height="6.56"/>
    <rect class="cls-10" x="68.15" y="74.01" width="6.56" height="6.56"/>
    <rect class="cls-10" x="60.84" y="81.57" width="6.56" height="6.56"/>
    <rect class="cls-10" x="68.15" y="81.57" width="6.56" height="6.56"/>
  </g>
  <g>
    <rect class="cls-10" x="88.45" y="73.51" width="6.56" height="6.56"/>
    <rect class="cls-10" x="95.77" y="73.51" width="6.56" height="6.56"/>
    <rect class="cls-10" x="88.45" y="81.07" width="6.56" height="6.56"/>
    <rect class="cls-10" x="95.77" y="81.07" width="6.56" height="6.56"/>
  </g>
  <g>
    <rect class="cls-10" x="74.01" y="29.11" width="6.56" height="6.56"/>
    <rect class="cls-10" x="81.33" y="29.11" width="6.56" height="6.56"/>
    <rect class="cls-10" x="74.01" y="36.68" width="6.56" height="6.56"/>
    <rect class="cls-10" x="81.33" y="36.68" width="6.56" height="6.56"/>
  </g>
  <g>
    <g>
      <rect class="cls-10" x="110.58" y="109.1" width="6.56" height="6.56"/>
      <rect class="cls-10" x="117.89" y="109.1" width="6.56" height="6.56"/>
      <rect class="cls-10" x="110.58" y="116.66" width="6.56" height="6.56"/>
      <rect class="cls-10" x="117.89" y="116.66" width="6.56" height="6.56"/>
    </g>
    <g>
      <rect class="cls-10" x="130.88" y="109.1" width="6.56" height="6.56"/>
      <rect class="cls-10" x="138.2" y="109.1" width="6.56" height="6.56"/>
      <rect class="cls-10" x="130.88" y="116.66" width="6.56" height="6.56"/>
      <rect class="cls-10" x="138.2" y="116.66" width="6.56" height="6.56"/>
    </g>
    <g>
      <rect class="cls-10" x="150.91" y="109.1" width="6.56" height="6.56"/>
      <rect class="cls-10" x="158.22" y="109.1" width="6.56" height="6.56"/>
      <rect class="cls-10" x="150.91" y="116.66" width="6.56" height="6.56"/>
      <rect class="cls-10" x="158.22" y="116.66" width="6.56" height="6.56"/>
    </g>
  </g>
  <g>
    <g>
      <rect class="cls-10" x="110.63" y="77.01" width="6.56" height="6.56"/>
      <rect class="cls-10" x="117.94" y="77.01" width="6.56" height="6.56"/>
      <rect class="cls-10" x="110.63" y="84.57" width="6.56" height="6.56"/>
      <rect class="cls-10" x="117.94" y="84.57" width="6.56" height="6.56"/>
    </g>
    <g>
      <rect class="cls-10" x="130.93" y="77.01" width="6.56" height="6.56"/>
      <rect class="cls-10" x="138.24" y="77.01" width="6.56" height="6.56"/>
      <rect class="cls-10" x="130.93" y="84.57" width="6.56" height="6.56"/>
      <rect class="cls-10" x="138.24" y="84.57" width="6.56" height="6.56"/>
    </g>
    <g>
      <rect class="cls-10" x="150.95" y="77.01" width="6.56" height="6.56"/>
      <rect class="cls-10" x="158.27" y="77.01" width="6.56" height="6.56"/>
      <rect class="cls-10" x="150.95" y="84.57" width="6.56" height="6.56"/>
      <rect class="cls-10" x="158.27" y="84.57" width="6.56" height="6.56"/>
    </g>
  </g>
  <g>
    <g>
      <rect class="cls-10" x="111.39" y="46.24" width="6.56" height="6.56"/>
      <rect class="cls-10" x="118.71" y="46.24" width="6.56" height="6.56"/>
      <rect class="cls-10" x="111.39" y="53.81" width="6.56" height="6.56"/>
      <rect class="cls-10" x="118.71" y="53.81" width="6.56" height="6.56"/>
    </g>
    <g>
      <rect class="cls-10" x="131.69" y="46.24" width="6.56" height="6.56"/>
      <rect class="cls-10" x="139.01" y="46.24" width="6.56" height="6.56"/>
      <rect class="cls-10" x="131.69" y="53.81" width="6.56" height="6.56"/>
      <rect class="cls-10" x="139.01" y="53.81" width="6.56" height="6.56"/>
    </g>
    <g>
      <rect class="cls-10" x="151.72" y="46.24" width="6.56" height="6.56"/>
      <rect class="cls-10" x="159.03" y="46.24" width="6.56" height="6.56"/>
      <rect class="cls-10" x="151.72" y="53.81" width="6.56" height="6.56"/>
      <rect class="cls-10" x="159.03" y="53.81" width="6.56" height="6.56"/>
    </g>
  </g>
  <g>
    <rect class="cls-10" x="175.87" y="109.6" width="6.56" height="6.56"/>
    <rect class="cls-10" x="183.18" y="109.6" width="6.56" height="6.56"/>
    <rect class="cls-10" x="175.87" y="117.16" width="6.56" height="6.56"/>
    <rect class="cls-10" x="183.18" y="117.16" width="6.56" height="6.56"/>
  </g>
  <g>
    <rect class="cls-10" x="200.06" y="109.6" width="6.56" height="6.56"/>
    <rect class="cls-10" x="207.37" y="109.6" width="6.56" height="6.56"/>
    <rect class="cls-10" x="200.06" y="117.16" width="6.56" height="6.56"/>
    <rect class="cls-10" x="207.37" y="117.16" width="6.56" height="6.56"/>
  </g>
  <circle class="cls-10" cx="195.04" cy="36.68" r="9.3"/>
  <g>
    <rect class="cls-10" x="175.86" y="76.77" width="6.56" height="6.56"/>
    <rect class="cls-10" x="183.18" y="76.77" width="6.56" height="6.56"/>
    <rect class="cls-10" x="175.86" y="84.33" width="6.56" height="6.56"/>
    <rect class="cls-10" x="183.18" y="84.33" width="6.56" height="6.56"/>
  </g>
  <g>
    <rect class="cls-10" x="200.05" y="76.77" width="6.56" height="6.56"/>
    <rect class="cls-10" x="207.37" y="76.77" width="6.56" height="6.56"/>
    <rect class="cls-10" x="200.05" y="84.33" width="6.56" height="6.56"/>
    <rect class="cls-10" x="207.37" y="84.33" width="6.56" height="6.56"/>
  </g>
  <g>
    <rect class="cls-10" x="175.86" y="52.01" width="6.56" height="6.56"/>
    <rect class="cls-10" x="183.18" y="52.01" width="6.56" height="6.56"/>
    <rect class="cls-10" x="175.86" y="59.57" width="6.56" height="6.56"/>
    <rect class="cls-10" x="183.18" y="59.57" width="6.56" height="6.56"/>
  </g>
  <g>
    <rect class="cls-10" x="200.05" y="52.01" width="6.56" height="6.56"/>
    <rect class="cls-10" x="207.37" y="52.01" width="6.56" height="6.56"/>
    <rect class="cls-10" x="200.05" y="59.57" width="6.56" height="6.56"/>
    <rect class="cls-10" x="207.37" y="59.57" width="6.56" height="6.56"/>
  </g>
  <g>
    <rect class="cls-10" x="60.84" y="48.98" width="6.56" height="6.56"/>
    <rect class="cls-10" x="68.15" y="48.98" width="6.56" height="6.56"/>
    <rect class="cls-10" x="60.84" y="56.54" width="6.56" height="6.56"/>
    <rect class="cls-10" x="68.15" y="56.54" width="6.56" height="6.56"/>
  </g>
  <g>
    <rect class="cls-10" x="88.45" y="48.48" width="6.56" height="6.56"/>
    <rect class="cls-10" x="95.77" y="48.48" width="6.56" height="6.56"/>
    <rect class="cls-10" x="88.45" y="56.04" width="6.56" height="6.56"/>
    <rect class="cls-10" x="95.77" y="56.04" width="6.56" height="6.56"/>
  </g>
  <rect class="cls-11" x="116.39" y="141.24" width="17.77" height="16.18"/>
  <rect class="cls-11" x="200.43" y="139.94" width="13.88" height="14.13"/>
  <g>
    <rect class="cls-10" x="225.64" y="68.08" width="5.43" height="5.43"/>
    <rect class="cls-10" x="231.7" y="68.08" width="5.43" height="5.43"/>
    <rect class="cls-10" x="225.64" y="74.34" width="5.43" height="5.43"/>
    <rect class="cls-10" x="231.7" y="74.34" width="5.43" height="5.43"/>
  </g>
  <g>
    <rect class="cls-10" x="245.66" y="68.08" width="5.43" height="5.43"/>
    <rect class="cls-10" x="251.71" y="68.08" width="5.43" height="5.43"/>
    <rect class="cls-10" x="245.66" y="74.34" width="5.43" height="5.43"/>
    <rect class="cls-10" x="251.71" y="74.34" width="5.43" height="5.43"/>
  </g>
  <g>
    <rect class="cls-10" x="226.21" y="89.2" width="5.43" height="5.43"/>
    <rect class="cls-10" x="232.26" y="89.2" width="5.43" height="5.43"/>
    <rect class="cls-10" x="226.21" y="95.46" width="5.43" height="5.43"/>
    <rect class="cls-10" x="232.26" y="95.46" width="5.43" height="5.43"/>
  </g>
  <g>
    <rect class="cls-10" x="246.23" y="89.2" width="5.43" height="5.43"/>
    <rect class="cls-10" x="252.28" y="89.2" width="5.43" height="5.43"/>
    <rect class="cls-10" x="246.23" y="95.46" width="5.43" height="5.43"/>
    <rect class="cls-10" x="252.28" y="95.46" width="5.43" height="5.43"/>
  </g>
  <g>
    <rect class="cls-10" x="226.21" y="110.32" width="5.43" height="5.43"/>
    <rect class="cls-10" x="232.26" y="110.32" width="5.43" height="5.43"/>
    <rect class="cls-10" x="226.21" y="116.57" width="5.43" height="5.43"/>
    <rect class="cls-10" x="232.26" y="116.57" width="5.43" height="5.43"/>
  </g>
  <g>
    <rect class="cls-10" x="246.23" y="110.32" width="5.43" height="5.43"/>
    <rect class="cls-10" x="252.28" y="110.32" width="5.43" height="5.43"/>
    <rect class="cls-10" x="246.23" y="116.57" width="5.43" height="5.43"/>
    <rect class="cls-10" x="252.28" y="116.57" width="5.43" height="5.43"/>
  </g>
  <g>
    <rect class="cls-10" x="226.21" y="129.39" width="5.43" height="5.43"/>
    <rect class="cls-10" x="232.26" y="129.39" width="5.43" height="5.43"/>
    <rect class="cls-10" x="226.21" y="135.65" width="5.43" height="5.43"/>
    <rect class="cls-10" x="232.26" y="135.65" width="5.43" height="5.43"/>
  </g>
  <g>
    <rect class="cls-10" x="246.23" y="129.39" width="5.43" height="5.43"/>
    <rect class="cls-10" x="252.28" y="129.39" width="5.43" height="5.43"/>
    <rect class="cls-10" x="246.23" y="135.65" width="5.43" height="5.43"/>
    <rect class="cls-10" x="252.28" y="135.65" width="5.43" height="5.43"/>
  </g>
  <rect class="cls-11" x="268.32" y="138.24" width="17.77" height="16.18"/>
  <g>
    <rect class="cls-10" x="268.32" y="108.67" width="6.56" height="6.56"/>
    <rect class="cls-10" x="275.64" y="108.67" width="6.56" height="6.56"/>
    <rect class="cls-10" x="268.32" y="116.24" width="6.56" height="6.56"/>
    <rect class="cls-10" x="275.64" y="116.24" width="6.56" height="6.56"/>
  </g>
  <g>
    <rect class="cls-10" x="295.94" y="108.17" width="6.56" height="6.56"/>
    <rect class="cls-10" x="303.25" y="108.17" width="6.56" height="6.56"/>
    <rect class="cls-10" x="295.94" y="115.74" width="6.56" height="6.56"/>
    <rect class="cls-10" x="303.25" y="115.74" width="6.56" height="6.56"/>
  </g>
  <g>
    <rect class="cls-10" x="282.2" y="83.52" width="6.56" height="6.56"/>
    <rect class="cls-10" x="289.52" y="83.52" width="6.56" height="6.56"/>
    <rect class="cls-10" x="282.2" y="91.09" width="6.56" height="6.56"/>
    <rect class="cls-10" x="289.52" y="91.09" width="6.56" height="6.56"/>
  </g>
  <g>
    <g>
      <rect class="cls-10" x="317.89" y="105.44" width="6.56" height="6.56"/>
      <rect class="cls-10" x="325.21" y="105.44" width="6.56" height="6.56"/>
      <rect class="cls-10" x="317.89" y="113" width="6.56" height="6.56"/>
      <rect class="cls-10" x="325.21" y="113" width="6.56" height="6.56"/>
    </g>
    <g>
      <rect class="cls-10" x="338.2" y="105.44" width="6.56" height="6.56"/>
      <rect class="cls-10" x="345.51" y="105.44" width="6.56" height="6.56"/>
      <rect class="cls-10" x="338.2" y="113" width="6.56" height="6.56"/>
      <rect class="cls-10" x="345.51" y="113" width="6.56" height="6.56"/>
    </g>
    <g>
      <rect class="cls-10" x="358.22" y="105.44" width="6.56" height="6.56"/>
      <rect class="cls-10" x="365.53" y="105.44" width="6.56" height="6.56"/>
      <rect class="cls-10" x="358.22" y="113" width="6.56" height="6.56"/>
      <rect class="cls-10" x="365.53" y="113" width="6.56" height="6.56"/>
    </g>
  </g>
  <g>
    <g>
      <rect class="cls-10" x="317.94" y="73.35" width="6.56" height="6.56"/>
      <rect class="cls-10" x="325.26" y="73.35" width="6.56" height="6.56"/>
      <rect class="cls-10" x="317.94" y="80.92" width="6.56" height="6.56"/>
      <rect class="cls-10" x="325.26" y="80.92" width="6.56" height="6.56"/>
    </g>
    <g>
      <rect class="cls-10" x="338.24" y="73.35" width="6.56" height="6.56"/>
      <rect class="cls-10" x="345.56" y="73.35" width="6.56" height="6.56"/>
      <rect class="cls-10" x="338.24" y="80.92" width="6.56" height="6.56"/>
      <rect class="cls-10" x="345.56" y="80.92" width="6.56" height="6.56"/>
    </g>
    <g>
      <rect class="cls-10" x="358.27" y="73.35" width="6.56" height="6.56"/>
      <rect class="cls-10" x="365.58" y="73.35" width="6.56" height="6.56"/>
      <rect class="cls-10" x="358.27" y="80.92" width="6.56" height="6.56"/>
      <rect class="cls-10" x="365.58" y="80.92" width="6.56" height="6.56"/>
    </g>
  </g>
  <g>
    <g>
      <rect class="cls-10" x="318.71" y="42.58" width="6.56" height="6.56"/>
      <rect class="cls-10" x="326.02" y="42.58" width="6.56" height="6.56"/>
      <rect class="cls-10" x="318.71" y="50.15" width="6.56" height="6.56"/>
      <rect class="cls-10" x="326.02" y="50.15" width="6.56" height="6.56"/>
    </g>
    <g>
      <rect class="cls-10" x="339.01" y="42.58" width="6.56" height="6.56"/>
      <rect class="cls-10" x="346.32" y="42.58" width="6.56" height="6.56"/>
      <rect class="cls-10" x="339.01" y="50.15" width="6.56" height="6.56"/>
      <rect class="cls-10" x="346.32" y="50.15" width="6.56" height="6.56"/>
    </g>
    <g>
      <rect class="cls-10" x="359.03" y="42.58" width="6.56" height="6.56"/>
      <rect class="cls-10" x="366.35" y="42.58" width="6.56" height="6.56"/>
      <rect class="cls-10" x="359.03" y="50.15" width="6.56" height="6.56"/>
      <rect class="cls-10" x="366.35" y="50.15" width="6.56" height="6.56"/>
    </g>
  </g>
  <rect class="cls-11" x="319.66" y="139.08" width="17.77" height="16.18"/>
  <g>
    <polygon class="cls-16" points="47.49 140.35 344.32 140.35 344.32 177.18 47.49 178.89 47.49 140.35"/>
    <polygon class="cls-15" points="45.81 132.64 45.81 140.35 84.03 140.35 345.99 140.35 345.99 131.08 45.81 131.6 45.81 132.64"/>
    <polygon class="cls-24" points="45.81 134.21 19.17 137.67 19.69 139.45 21.54 139.18 45.81 135.71 45.81 134.21"/>
    <polygon class="cls-16" points="21.89 177.18 21.54 139.18 45.81 135.71 45.81 140.35 47.49 140.35 47.49 177.18 21.89 177.18"/>
    <polygon class="cls-1" points="344.32 174.18 348.19 174.18 363.36 179.41 46.58 181.29 48.46 178.99 344.32 177.18 344.32 174.18"/>
    <polygon class="cls-2" points="363.36 179.41 363.36 181.29 46.58 182.65 46.58 181.29 363.36 179.41"/>
    <path class="cls-5" d="M52.02,182.65v6.7c-3.88,3.35,4.22,6.7,0,6.7-2.33,0-.28,0,1.48,0-3.22,0-2.32,0,4.27,0h282.35c-1.51,0-1.35,0,3.12,0-4.12,0-4.89,0,1.07,0-3.24,0,0-3.67,0-7.33v-7.33l-292.3,1.28Z"/>
    <rect class="cls-12" x="82.08" y="141.83" width="17.02" height="30.6"/>
    <rect class="cls-12" x="189.66" y="141.97" width="17.02" height="30.6"/>
    <rect class="cls-12" x="131.6" y="141.83" width="17.02" height="30.6"/>
    <rect class="cls-12" x="148.62" y="141.83" width="41.55" height="30.6"/>
    <rect class="cls-12" x="244.86" y="141.83" width="17.02" height="30.6"/>
    <rect class="cls-12" x="295.92" y="141.83" width="17.02" height="30.6"/>
    <path class="cls-4" d="M347.56,204.52c-8.37,0-.7,0-3.87,0,2.92,0-7.57.53-.83,1.45,11.96.92,5.53,2.25.83,3.83-1.44.79,2.3,1.65-2.83,2.56,4.31.91-4.45,1.87,2.77,2.86-1.36.99,4.09,2.02,2.71,3.06-2.8,1.04-1.35,2.1-2.64,3.15,11.69,1.06,1.51,2.11-1.92,3.15-8.85,1.04,1.81,2.06-1.52,3.06,2.37.99.47,1.95,3.57,2.86-2.17.91,2.7,1.77-.13,2.56-1.1,1.59,6.53,2.91,2.86,3.83-6.62.92-.32,1.45-2.86,1.45,1.12,0,3.53,0-.5,0-2.8,0-1.06,0,2.17,0-5.23,0-5.28.58-.56,1.45,5.18.87,2.87,2.03.56,3.19-.55,1.16-3.68,2.32-5.11,3.19s-1.16,1.45,5.11,1.45c1.32,0,10.97,0-1.4,0-.12,0-6.76,0-4.05,0-5.11,0-3.17,0-6.47-.01-7.74,0,3.92,0-8.66-.02-3.42,0-10.66-.01-10.62-.02-11.86,0-14.68-.01-12.35-.02-1.35,0-7.42-.02-13.85-.02-6.08,0-9.85-.02-15.12-.03-1.84,0-13.14-.02-16.16-.03,2,0-12.24-.02-16.96-.03-5.57-.01-3.5-.02-17.54-.03-9.71-.01-16.86-.02-17.89-.03-4.01-.01-14.73-.02-18-.03-4.71-.01-25.52-.02-17.89-.03,1.8-.01,1.94-.02-17.54-.03-.73-.01-16.34-.02-16.96-.03-11.98,0-5.62-.02-16.16-.03-5.81,0-8.82-.02-15.12-.03-1.19,0-7.01-.02-13.85-.02-6.17,0-11.5-.01-12.35-.02-6.01,0-6.85-.01-10.62-.02-1.61,0-5.18-.01-8.66-.02-4.61,0-.98,0-6.47-.01-3.97,0-4.95,0-4.05,0,6.39,0-7.2,0-1.4,0-6.75,0,4.64-1.04,0-1.04.8,0,1.94-1.58,0-1.58-3.12,0,6.73-.38-6.91-.9-6.19-.51-4.27-1.15-12.83-1.66-1.48-.51-17.3-.9-6.91-.9-4.84,0-1.81-1.78.52-1.78-5.76,0,5.07.26,1.85.26-1.41,0-2.56-.59-2.77-1.63.83-1.04-.07-2.52,2.82-4.3-1.84-.89,3.81-1.86-2.78-2.88,8.44-1.02,1.46-2.1,2.63-3.21-6.12-1.11.26-2.26,3.27-3.43-1.61-1.17-6.92-2.36-3-3.54-3.89-1.19,5.06-2.37.12-3.54.49-1.17-5.03-2.32-.06-3.43-.08-1.11-.93-2.19-.47-3.21,2.68-1.02-7.58-1.99.52-2.88,1.07-1.78,3.36-3.27.99-4.3,4.62-1.04,5.23-1.63-.93-1.63,5.88,0,3.42,0,4.66,0-3.42,0-.04,0,1.98,0,4.1,0,6.65,0,3.52,0,10.54,0,8.58,0,8.8,0,7.77,0-.68,0,5.96,0-1.22,0-4.66,0,.68,0,10.29,0,7.08-.43,4.75-.85,3.15-.43-8.52-.85-4.75-.85-.7,0-.38,0,1.39,0,6.33,0,7.15,0,7,0,2.92,0-1.91,0-2.99.01.19,0,.71.01,2.64.02,4.86,0,7.32.01,3.76.02,2,0,5.52.01,5.46.02-1.04,0,4.14.02,3.1.03,4.5,0,3.98.02,5.23.03-3.47.01,5.39.02,5.27.03,1.31.01,4.85.02,5.62.03,3.63.01,5.23.02,6.6.04.06.01,1.75.03,5.5.04.37.01,3.79.03,8.2.04,2.85.01,4.46.03,6.42.04s4.27.03,8.53.04c4.37.03,11.76.06,15.98.09,3.21.03,11.63.06,16.77.1,6.38.03,11.61.07,17.34.1,6.72.03,9.34.07,17.69.1,7.39.03,13.45.07,17.8.1,10.39.03,10.57.07,17.69.1,2.68.03,13.58.07,17.34.1,8.06.03,13.64.07,16.77.1,1.22.02,4.03.03,6.18.05,1.54.02,6.77.03,9.8.05,5.7.01,10.17.03,10.03.04,3.47.01.58.03,4.92.04,2.01.01,3.84.03,6.28.04-1.48.01,3.29.03,7.41.04,1.8.01,6.31.02,7.24.04,5.71.01,2.37.02,4.97.03-2.52.01,5.65.02,6.71.03,4.4.01,6.7.02,3.8.03,1.24,0-.68.02,4.54.03-.32,0,1.96.02,4.03.02,1.47.01-.54.02,5.57.03,5.32,0-.85.02,3.15.02-.97,0-6.21.01,4.38.01,5.38,0,2.31,0-1.3,0-2.44,0-.42,0-3.07-.02-.16,0-6.29-.01-2.52-.02-5.65,0-7.94-.02-6.17-.03-1.04,0,.36-.02-4.01-.02-5.82,0-2.19-.02-4.53-.03-2.19,0-4.21-.02-5.1-.03-3.56-.01-8.46-.02-5.37-.03-5.56-.01-2.49-.02-5.84-.04-1.54-.01-2.77-.03-6.34-.04-2.19-.01-6.51-.03-6.21-.04-1.83-.01-4.96-.03-7.44-.04-2.4-.01-5.92-.03-7.78-.04-4.02-.02-6.29-.03-7.12-.05-.71-.02-5.47-.03-6.96-.05-4.34-.02-3.87-.03-8.96-.05-1.84-.02-3.67-.03-6.21-.05s-5.8-.03-10.51-.05c-4.8-.03-10.19-.07-17.29-.11-6.86-.04-12.52-.07-17.63-.11-4.61-.04-13.69-.07-17.74-.11-8.37-.04-9.52-.07-17.63-.11-5.17-.04-15.58-.07-17.29-.11-3.8-.03-11.79-.07-16.72-.1-6.31-.03-13.26-.07-15.92-.1-8.55-.03-8.22-.06-14.9-.09-1.01-.01-2.63-.03-5.38-.04-2.47-.01-5.71-.03-8.27-.04-2.07-.01-7.11-.03-6.54-.04-1.23-.01-3.63-.02-5.63-.04.04-.01-4.9-.02-5.55-.03-1.53-.01-6.84-.02-4.92-.03.3,0-2.31-.02-4.84-.03.41,0-1.16-.02-3.7-.02.28,0-5.02-.01-3.99-.02-.91,0-4.71-.01-2.39-.02-1.29-.01.77-.02-4-.02,10.19,0,4.04,0-1.38,0-1.72,0-5.5-2.3-1.88-2.3-4.01,0,1.98-1.36,0-1.36,4.29,0,2.5,0,1.37,0-3.43,0-4.64,0-1.14,0,2.78,0,1.43,0,5.1,0,5.41,0,6.55,0,4.25.01,4.61,0-.62,0,2.09.01,2.81,0,1.02.01,5.52.02,5.2,0-1.15.01,2.99.02,6.31,0,6.81.01,5.52.02.08,0,4.47.02,4.93.02-1.66,0,3.76.02,4.53.03,3.99,0,5.3.02,7.65.03,4.38,0,8.43.02,8.03.03,2.02,0,1.86.02,5.67.03,2.11.01,4.21.02,6.61.03s5.09.02,8.39.03c5.5.02,8.1.05,16.08.07,6.37.02,11.75.05,16.94.07,7.2.02,10.11.05,17.59.08,7.65.03,10.47.05,18.02.08,8.06.03,11.09.05,18.24.08,4.86.03,9.65.05,18.24.08,5.17.03,15.47.05,18.02.08,1.86.01,4.47.03,7.5.04s6.5.03,10.09.04c2.09.01,5.45.02,7.83.04,1.58.01,3.8.02,9.11.04-1.13.01,6.44.02,8.55.04-1.39.01,6.66.02,7.53.03.72.01,9,.02,8.17.03.93.01,7.03.02,6.83.03,5.75.01,2.53.02,7.93.03,4.9,0,.71.02,5.76.03,2.97,0,6.57.02,6.29.03,3.84,0,4.52.02,5.89.03,2.75.01,7.06.03,8.75.04,7.43.01,3.32.02,7.61.03,11.57,0,1.14.02,7.31.03,1.6,0,3.75.01,3.24.02-3.85.01-1.75.02,3.74.02-6.76,0,6.98,1.88,0,1.88-1.97,0-7.58.33-7.1.82,1.65.49,7.17,1.14-.48,1.8,4.33.65-8.1,1.31-4.32,1.8-3.27.49-4.17.82-3.27.82Z"/>
  </g>
</svg>