<?xml version="1.0" encoding="UTF-8"?>
<svg id="Layer_1" data-name="Layer 1" xmlns="http://www.w3.org/2000/svg" viewBox="0 0 375 250">
  <defs>
    <style>
      .cls-1, .cls-2, .cls-3 {
        fill: none;
      }

      .cls-4 {
        fill: #cbeff6;
      }

      .cls-5 {
        fill: #f8dbac;
        stroke: #f8dbac;
      }

      .cls-5, .cls-6, .cls-7, .cls-8, .cls-9, .cls-2, .cls-10, .cls-3 {
        stroke-miterlimit: 10;
      }

      .cls-5, .cls-3 {
        stroke-width: 3px;
      }

      .cls-6, .cls-8 {
        fill: #fdd934;
        stroke: #fbbf19;
      }

      .cls-11 {
        fill: #dd9934;
      }

      .cls-12 {
        fill: #231f20;
      }

      .cls-7, .cls-8, .cls-9 {
        stroke-width: 2px;
      }

      .cls-7, .cls-3 {
        stroke: #f3ddb5;
      }

      .cls-7, .cls-13 {
        fill: #ef0017;
      }

      .cls-9, .cls-10 {
        fill: #2a0a0d;
        stroke: #f8dcb0;
      }

      .cls-14 {
        fill: #4683a2;
      }

      .cls-2 {
        stroke: #fcdf9f;
        stroke-width: 4px;
      }

      .cls-15 {
        fill: #d57f6e;
      }

      .cls-16 {
        fill: #e00000;
      }

      .cls-17 {
        fill: #74746b;
      }

      .cls-18 {
        fill: #74746a;
      }

      .cls-19 {
        fill: #d3eff6;
      }

      .cls-20 {
        fill: #7faa4d;
      }

      .cls-21 {
        fill: #e65f2b;
      }
    </style>
  </defs>
  <rect class="cls-19" x="-49.29" y="-19.8" width="476.89" height="210.26"/>
  <rect class="cls-17" x="-2.13" y="174.57" width="377.13" height="21.07"/>
  <rect class="cls-14" x="-25.85" y="190.71" width="417.32" height="154.16"/>
  <path class="cls-14" d="M178.95,246.23s10.56,2.78,26.74,3.07-9.82,26.26-9.82,26.26l-24.03-10.73,7.11-18.6Z"/>
  <rect class="cls-4" x="-48.82" y="-11.61" width="476.89" height="210.26"/>
  <g>
    <polygon class="cls-20" points=".62 90.56 9.76 90.56 9.76 74.37 21.38 74.37 21.38 63.98 29.97 63.98 29.97 74.37 41.9 74.37 41.9 90.31 55 90.31 55 183.34 .62 183.34 .62 90.56"/>
    <polyline class="cls-2" points=".62 89.02 8.46 89.02 8.46 73.19 20.39 73.19 20.39 63.12 30.9 63.12 30.9 72.94 42.58 72.94 42.58 89.02 55 89.02"/>
    <polygon class="cls-13" points="55 183.34 55 47.87 76.55 22.98 76.55 15.56 87.1 15.56 87.1 23.15 107.54 47.21 107.54 183.34 55 183.34"/>
    <polyline class="cls-7" points="54.38 46.96 75.57 22.9 75.57 14.08 88.5 14.08 88.5 22.82 108.45 46.8"/>
    <polygon class="cls-11" points="106.67 183.34 169.63 183.34 169.63 40.45 146.23 24.96 146.23 14.08 130.73 14.08 130.73 25.62 107.57 39.79 106.67 183.34"/>
    <polyline class="cls-3" points="106.55 40.45 131.61 25.62 131.61 14.08 147.1 14.08 147.1 24.96 171.84 41.34"/>
  </g>
  <rect class="cls-9" x="2.71" y="147.11" width="19.28" height="37.02"/>
  <g>
    <polygon class="cls-16" points="263.37 93.27 272.3 93.27 272.3 77.42 283.67 77.42 283.67 67.26 292.08 67.26 292.08 77.42 303.75 77.42 303.75 93.02 316.57 93.02 316.57 184.03 263.37 184.03 263.37 93.27"/>
    <polyline class="cls-2" points="262.56 92.02 270.22 92.02 270.22 76.54 281.89 76.54 281.89 66.69 292.17 66.69 292.17 76.3 303.6 76.3 303.6 92.02 315.76 92.02"/>
    <polygon class="cls-13" points="169.23 183.42 169.23 48.69 190.67 23.93 190.67 16.56 201.16 16.56 201.16 24.1 221.49 48.03 221.49 183.42 169.23 183.42"/>
    <polyline class="cls-7" points="168.62 47.79 189.69 23.85 189.69 15.08 202.55 15.08 202.55 23.77 222.39 47.62"/>
    <polygon class="cls-15" points="314.9 183.76 376.5 183.76 376.5 43.97 353.6 28.81 353.6 18.17 338.45 18.17 338.45 29.46 315.79 43.33 314.9 183.76"/>
    <polyline class="cls-3" points="313.94 43.97 338.45 29.46 338.45 18.17 353.6 18.17 353.6 28.81 377.8 44.84"/>
    <rect class="cls-21" x="221.49" y="67.26" width="41.88" height="116.16"/>
  </g>
  <line class="cls-5" x1="263.37" y1="66.69" x2="221.49" y2="66.69"/>
  <rect class="cls-9" x="31.09" y="147.11" width="17.77" height="16.18"/>
  <rect class="cls-9" x="145.77" y="148.09" width="17.77" height="36.03"/>
  <g>
    <rect class="cls-10" x="5.41" y="117.54" width="6.56" height="6.56"/>
    <rect class="cls-10" x="12.73" y="117.54" width="6.56" height="6.56"/>
    <rect class="cls-10" x="5.41" y="125.1" width="6.56" height="6.56"/>
    <rect class="cls-10" x="12.73" y="125.1" width="6.56" height="6.56"/>
  </g>
  <rect class="cls-9" x="174.76" y="148.39" width="17.77" height="36.03"/>
  <g>
    <rect class="cls-10" x="33.03" y="117.04" width="6.56" height="6.56"/>
    <rect class="cls-10" x="40.35" y="117.04" width="6.56" height="6.56"/>
    <rect class="cls-10" x="33.03" y="124.6" width="6.56" height="6.56"/>
    <rect class="cls-10" x="40.35" y="124.6" width="6.56" height="6.56"/>
  </g>
  <rect class="cls-9" x="352.33" y="147.1" width="19.28" height="37.02"/>
  <g>
    <rect class="cls-10" x="19.29" y="92.39" width="6.56" height="6.56"/>
    <rect class="cls-10" x="26.61" y="92.39" width="6.56" height="6.56"/>
    <rect class="cls-10" x="19.29" y="99.95" width="6.56" height="6.56"/>
    <rect class="cls-10" x="26.61" y="99.95" width="6.56" height="6.56"/>
  </g>
  <rect class="cls-9" x="233.54" y="155.19" width="17.77" height="29.23"/>
  <rect class="cls-9" x="72.39" y="148.09" width="17.77" height="36.03"/>
  <rect class="cls-9" x="293.33" y="147.1" width="19.28" height="37.02"/>
  <rect class="cls-18" x="-1.67" y="182.76" width="377.13" height="21.07"/>
  <g>
    <rect class="cls-10" x="61.3" y="117.29" width="6.56" height="6.56"/>
    <rect class="cls-10" x="68.62" y="117.29" width="6.56" height="6.56"/>
    <rect class="cls-10" x="61.3" y="124.85" width="6.56" height="6.56"/>
    <rect class="cls-10" x="68.62" y="124.85" width="6.56" height="6.56"/>
  </g>
  <g>
    <rect class="cls-10" x="88.92" y="116.79" width="6.56" height="6.56"/>
    <rect class="cls-10" x="96.23" y="116.79" width="6.56" height="6.56"/>
    <rect class="cls-10" x="88.92" y="124.35" width="6.56" height="6.56"/>
    <rect class="cls-10" x="96.23" y="124.35" width="6.56" height="6.56"/>
  </g>
  <g>
    <rect class="cls-10" x="61.3" y="82.2" width="6.56" height="6.56"/>
    <rect class="cls-10" x="68.62" y="82.2" width="6.56" height="6.56"/>
    <rect class="cls-10" x="61.3" y="89.77" width="6.56" height="6.56"/>
    <rect class="cls-10" x="68.62" y="89.77" width="6.56" height="6.56"/>
  </g>
  <g>
    <rect class="cls-10" x="88.92" y="81.7" width="6.56" height="6.56"/>
    <rect class="cls-10" x="96.23" y="81.7" width="6.56" height="6.56"/>
    <rect class="cls-10" x="88.92" y="89.27" width="6.56" height="6.56"/>
    <rect class="cls-10" x="96.23" y="89.27" width="6.56" height="6.56"/>
  </g>
  <g>
    <rect class="cls-10" x="74.48" y="37.3" width="6.56" height="6.56"/>
    <rect class="cls-10" x="81.79" y="37.3" width="6.56" height="6.56"/>
    <rect class="cls-10" x="74.48" y="44.87" width="6.56" height="6.56"/>
    <rect class="cls-10" x="81.79" y="44.87" width="6.56" height="6.56"/>
  </g>
  <g>
    <g>
      <rect class="cls-10" x="111.05" y="117.29" width="6.56" height="6.56"/>
      <rect class="cls-10" x="118.36" y="117.29" width="6.56" height="6.56"/>
      <rect class="cls-10" x="111.05" y="124.85" width="6.56" height="6.56"/>
      <rect class="cls-10" x="118.36" y="124.85" width="6.56" height="6.56"/>
    </g>
    <g>
      <rect class="cls-10" x="131.35" y="117.29" width="6.56" height="6.56"/>
      <rect class="cls-10" x="138.66" y="117.29" width="6.56" height="6.56"/>
      <rect class="cls-10" x="131.35" y="124.85" width="6.56" height="6.56"/>
      <rect class="cls-10" x="138.66" y="124.85" width="6.56" height="6.56"/>
    </g>
    <g>
      <rect class="cls-10" x="151.37" y="117.29" width="6.56" height="6.56"/>
      <rect class="cls-10" x="158.69" y="117.29" width="6.56" height="6.56"/>
      <rect class="cls-10" x="151.37" y="124.85" width="6.56" height="6.56"/>
      <rect class="cls-10" x="158.69" y="124.85" width="6.56" height="6.56"/>
    </g>
  </g>
  <g>
    <g>
      <rect class="cls-10" x="111.09" y="85.2" width="6.56" height="6.56"/>
      <rect class="cls-10" x="118.41" y="85.2" width="6.56" height="6.56"/>
      <rect class="cls-10" x="111.09" y="92.77" width="6.56" height="6.56"/>
      <rect class="cls-10" x="118.41" y="92.77" width="6.56" height="6.56"/>
    </g>
    <g>
      <rect class="cls-10" x="131.4" y="85.2" width="6.56" height="6.56"/>
      <rect class="cls-10" x="138.71" y="85.2" width="6.56" height="6.56"/>
      <rect class="cls-10" x="131.4" y="92.77" width="6.56" height="6.56"/>
      <rect class="cls-10" x="138.71" y="92.77" width="6.56" height="6.56"/>
    </g>
    <g>
      <rect class="cls-10" x="151.42" y="85.2" width="6.56" height="6.56"/>
      <rect class="cls-10" x="158.73" y="85.2" width="6.56" height="6.56"/>
      <rect class="cls-10" x="151.42" y="92.77" width="6.56" height="6.56"/>
      <rect class="cls-10" x="158.73" y="92.77" width="6.56" height="6.56"/>
    </g>
  </g>
  <g>
    <g>
      <rect class="cls-10" x="111.86" y="54.43" width="6.56" height="6.56"/>
      <rect class="cls-10" x="119.17" y="54.43" width="6.56" height="6.56"/>
      <rect class="cls-10" x="111.86" y="62" width="6.56" height="6.56"/>
      <rect class="cls-10" x="119.17" y="62" width="6.56" height="6.56"/>
    </g>
    <g>
      <rect class="cls-10" x="132.16" y="54.43" width="6.56" height="6.56"/>
      <rect class="cls-10" x="139.48" y="54.43" width="6.56" height="6.56"/>
      <rect class="cls-10" x="132.16" y="62" width="6.56" height="6.56"/>
      <rect class="cls-10" x="139.48" y="62" width="6.56" height="6.56"/>
    </g>
    <g>
      <rect class="cls-10" x="152.18" y="54.43" width="6.56" height="6.56"/>
      <rect class="cls-10" x="159.5" y="54.43" width="6.56" height="6.56"/>
      <rect class="cls-10" x="152.18" y="62" width="6.56" height="6.56"/>
      <rect class="cls-10" x="159.5" y="62" width="6.56" height="6.56"/>
    </g>
  </g>
  <g>
    <rect class="cls-10" x="176.33" y="117.79" width="6.56" height="6.56"/>
    <rect class="cls-10" x="183.65" y="117.79" width="6.56" height="6.56"/>
    <rect class="cls-10" x="176.33" y="125.35" width="6.56" height="6.56"/>
    <rect class="cls-10" x="183.65" y="125.35" width="6.56" height="6.56"/>
  </g>
  <g>
    <rect class="cls-10" x="200.52" y="117.79" width="6.56" height="6.56"/>
    <rect class="cls-10" x="207.84" y="117.79" width="6.56" height="6.56"/>
    <rect class="cls-10" x="200.52" y="125.35" width="6.56" height="6.56"/>
    <rect class="cls-10" x="207.84" y="125.35" width="6.56" height="6.56"/>
  </g>
  <circle class="cls-10" cx="195.51" cy="44.87" r="9.3"/>
  <g>
    <rect class="cls-10" x="176.33" y="84.96" width="6.56" height="6.56"/>
    <rect class="cls-10" x="183.64" y="84.96" width="6.56" height="6.56"/>
    <rect class="cls-10" x="176.33" y="92.52" width="6.56" height="6.56"/>
    <rect class="cls-10" x="183.64" y="92.52" width="6.56" height="6.56"/>
  </g>
  <g>
    <rect class="cls-10" x="200.52" y="84.96" width="6.56" height="6.56"/>
    <rect class="cls-10" x="207.83" y="84.96" width="6.56" height="6.56"/>
    <rect class="cls-10" x="200.52" y="92.52" width="6.56" height="6.56"/>
    <rect class="cls-10" x="207.83" y="92.52" width="6.56" height="6.56"/>
  </g>
  <g>
    <rect class="cls-10" x="176.33" y="60.2" width="6.56" height="6.56"/>
    <rect class="cls-10" x="183.64" y="60.2" width="6.56" height="6.56"/>
    <rect class="cls-10" x="176.33" y="67.76" width="6.56" height="6.56"/>
    <rect class="cls-10" x="183.64" y="67.76" width="6.56" height="6.56"/>
  </g>
  <g>
    <rect class="cls-10" x="200.52" y="60.2" width="6.56" height="6.56"/>
    <rect class="cls-10" x="207.83" y="60.2" width="6.56" height="6.56"/>
    <rect class="cls-10" x="200.52" y="67.76" width="6.56" height="6.56"/>
    <rect class="cls-10" x="207.83" y="67.76" width="6.56" height="6.56"/>
  </g>
  <g>
    <rect class="cls-10" x="61.3" y="57.17" width="6.56" height="6.56"/>
    <rect class="cls-10" x="68.62" y="57.17" width="6.56" height="6.56"/>
    <rect class="cls-10" x="61.3" y="64.73" width="6.56" height="6.56"/>
    <rect class="cls-10" x="68.62" y="64.73" width="6.56" height="6.56"/>
  </g>
  <g>
    <rect class="cls-10" x="88.92" y="56.67" width="6.56" height="6.56"/>
    <rect class="cls-10" x="96.23" y="56.67" width="6.56" height="6.56"/>
    <rect class="cls-10" x="88.92" y="64.23" width="6.56" height="6.56"/>
    <rect class="cls-10" x="96.23" y="64.23" width="6.56" height="6.56"/>
  </g>
  <rect class="cls-9" x="116.85" y="149.43" width="17.77" height="16.18"/>
  <rect class="cls-9" x="200.89" y="148.13" width="13.88" height="14.13"/>
  <g>
    <rect class="cls-10" x="226.11" y="76.27" width="5.43" height="5.43"/>
    <rect class="cls-10" x="232.16" y="76.27" width="5.43" height="5.43"/>
    <rect class="cls-10" x="226.11" y="82.53" width="5.43" height="5.43"/>
    <rect class="cls-10" x="232.16" y="82.53" width="5.43" height="5.43"/>
  </g>
  <g>
    <rect class="cls-10" x="246.13" y="76.27" width="5.43" height="5.43"/>
    <rect class="cls-10" x="252.18" y="76.27" width="5.43" height="5.43"/>
    <rect class="cls-10" x="246.13" y="82.53" width="5.43" height="5.43"/>
    <rect class="cls-10" x="252.18" y="82.53" width="5.43" height="5.43"/>
  </g>
  <g>
    <rect class="cls-10" x="226.68" y="97.39" width="5.43" height="5.43"/>
    <rect class="cls-10" x="232.73" y="97.39" width="5.43" height="5.43"/>
    <rect class="cls-10" x="226.68" y="103.65" width="5.43" height="5.43"/>
    <rect class="cls-10" x="232.73" y="103.65" width="5.43" height="5.43"/>
  </g>
  <g>
    <rect class="cls-10" x="246.69" y="97.39" width="5.43" height="5.43"/>
    <rect class="cls-10" x="252.75" y="97.39" width="5.43" height="5.43"/>
    <rect class="cls-10" x="246.69" y="103.65" width="5.43" height="5.43"/>
    <rect class="cls-10" x="252.75" y="103.65" width="5.43" height="5.43"/>
  </g>
  <g>
    <rect class="cls-10" x="226.68" y="118.51" width="5.43" height="5.43"/>
    <rect class="cls-10" x="232.73" y="118.51" width="5.43" height="5.43"/>
    <rect class="cls-10" x="226.68" y="124.77" width="5.43" height="5.43"/>
    <rect class="cls-10" x="232.73" y="124.77" width="5.43" height="5.43"/>
  </g>
  <g>
    <rect class="cls-10" x="246.69" y="118.51" width="5.43" height="5.43"/>
    <rect class="cls-10" x="252.75" y="118.51" width="5.43" height="5.43"/>
    <rect class="cls-10" x="246.69" y="124.77" width="5.43" height="5.43"/>
    <rect class="cls-10" x="252.75" y="124.77" width="5.43" height="5.43"/>
  </g>
  <g>
    <rect class="cls-10" x="226.68" y="137.58" width="5.43" height="5.43"/>
    <rect class="cls-10" x="232.73" y="137.58" width="5.43" height="5.43"/>
    <rect class="cls-10" x="226.68" y="143.84" width="5.43" height="5.43"/>
    <rect class="cls-10" x="232.73" y="143.84" width="5.43" height="5.43"/>
  </g>
  <g>
    <rect class="cls-10" x="246.69" y="137.58" width="5.43" height="5.43"/>
    <rect class="cls-10" x="252.75" y="137.58" width="5.43" height="5.43"/>
    <rect class="cls-10" x="246.69" y="143.84" width="5.43" height="5.43"/>
    <rect class="cls-10" x="252.75" y="143.84" width="5.43" height="5.43"/>
  </g>
  <rect class="cls-9" x="268.79" y="146.43" width="17.77" height="16.18"/>
  <g>
    <rect class="cls-10" x="268.79" y="116.86" width="6.56" height="6.56"/>
    <rect class="cls-10" x="276.1" y="116.86" width="6.56" height="6.56"/>
    <rect class="cls-10" x="268.79" y="124.43" width="6.56" height="6.56"/>
    <rect class="cls-10" x="276.1" y="124.43" width="6.56" height="6.56"/>
  </g>
  <g>
    <rect class="cls-10" x="296.41" y="116.36" width="6.56" height="6.56"/>
    <rect class="cls-10" x="303.72" y="116.36" width="6.56" height="6.56"/>
    <rect class="cls-10" x="296.41" y="123.93" width="6.56" height="6.56"/>
    <rect class="cls-10" x="303.72" y="123.93" width="6.56" height="6.56"/>
  </g>
  <g>
    <rect class="cls-10" x="282.67" y="91.71" width="6.56" height="6.56"/>
    <rect class="cls-10" x="289.98" y="91.71" width="6.56" height="6.56"/>
    <rect class="cls-10" x="282.67" y="99.28" width="6.56" height="6.56"/>
    <rect class="cls-10" x="289.98" y="99.28" width="6.56" height="6.56"/>
  </g>
  <g>
    <g>
      <rect class="cls-10" x="318.36" y="113.63" width="6.56" height="6.56"/>
      <rect class="cls-10" x="325.68" y="113.63" width="6.56" height="6.56"/>
      <rect class="cls-10" x="318.36" y="121.19" width="6.56" height="6.56"/>
      <rect class="cls-10" x="325.68" y="121.19" width="6.56" height="6.56"/>
    </g>
    <g>
      <rect class="cls-10" x="338.66" y="113.63" width="6.56" height="6.56"/>
      <rect class="cls-10" x="345.98" y="113.63" width="6.56" height="6.56"/>
      <rect class="cls-10" x="338.66" y="121.19" width="6.56" height="6.56"/>
      <rect class="cls-10" x="345.98" y="121.19" width="6.56" height="6.56"/>
    </g>
    <g>
      <rect class="cls-10" x="358.69" y="113.63" width="6.56" height="6.56"/>
      <rect class="cls-10" x="366" y="113.63" width="6.56" height="6.56"/>
      <rect class="cls-10" x="358.69" y="121.19" width="6.56" height="6.56"/>
      <rect class="cls-10" x="366" y="121.19" width="6.56" height="6.56"/>
    </g>
  </g>
  <g>
    <g>
      <rect class="cls-10" x="318.41" y="81.54" width="6.56" height="6.56"/>
      <rect class="cls-10" x="325.72" y="81.54" width="6.56" height="6.56"/>
      <rect class="cls-10" x="318.41" y="89.11" width="6.56" height="6.56"/>
      <rect class="cls-10" x="325.72" y="89.11" width="6.56" height="6.56"/>
    </g>
    <g>
      <rect class="cls-10" x="338.71" y="81.54" width="6.56" height="6.56"/>
      <rect class="cls-10" x="346.03" y="81.54" width="6.56" height="6.56"/>
      <rect class="cls-10" x="338.71" y="89.11" width="6.56" height="6.56"/>
      <rect class="cls-10" x="346.03" y="89.11" width="6.56" height="6.56"/>
    </g>
    <g>
      <rect class="cls-10" x="358.73" y="81.54" width="6.56" height="6.56"/>
      <rect class="cls-10" x="366.05" y="81.54" width="6.56" height="6.56"/>
      <rect class="cls-10" x="358.73" y="89.11" width="6.56" height="6.56"/>
      <rect class="cls-10" x="366.05" y="89.11" width="6.56" height="6.56"/>
    </g>
  </g>
  <g>
    <g>
      <rect class="cls-10" x="319.17" y="50.77" width="6.56" height="6.56"/>
      <rect class="cls-10" x="326.49" y="50.77" width="6.56" height="6.56"/>
      <rect class="cls-10" x="319.17" y="58.34" width="6.56" height="6.56"/>
      <rect class="cls-10" x="326.49" y="58.34" width="6.56" height="6.56"/>
    </g>
    <g>
      <rect class="cls-10" x="339.48" y="50.77" width="6.56" height="6.56"/>
      <rect class="cls-10" x="346.79" y="50.77" width="6.56" height="6.56"/>
      <rect class="cls-10" x="339.48" y="58.34" width="6.56" height="6.56"/>
      <rect class="cls-10" x="346.79" y="58.34" width="6.56" height="6.56"/>
    </g>
    <g>
      <rect class="cls-10" x="359.5" y="50.77" width="6.56" height="6.56"/>
      <rect class="cls-10" x="366.81" y="50.77" width="6.56" height="6.56"/>
      <rect class="cls-10" x="359.5" y="58.34" width="6.56" height="6.56"/>
      <rect class="cls-10" x="366.81" y="58.34" width="6.56" height="6.56"/>
    </g>
  </g>
  <rect class="cls-9" x="320.13" y="147.27" width="17.77" height="16.18"/>
  <polygon class="cls-8" points="379.08 144.73 298.32 100.96 293.33 110.56 379.08 172.82 379.08 144.73"/>
  <polygon class="cls-12" points="301.82 79.36 340.22 105.89 337.99 109.94 301.82 84.55 301.82 79.36"/>
  <path class="cls-8" d="M278.82,90.12s-24.98-1.04-7.31,16.1c2.39,2.32,10.6-14.13,10.6-14.13l-3.28-1.97Z"/>
  <path class="cls-8" d="M255.46,193.29s71.32-96.81,43.39-118.5c-21.18-16.45-50.54,116.61-54.21,115.76l10.82,2.74Z"/>
  <polygon class="cls-8" points="228.83 203.82 229.39 183.34 234.2 182.64 234.2 200.01 228.83 203.82"/>
  <polygon class="cls-12" points="241.8 152.57 230.55 174.96 234.2 176.43 245.77 155.36 241.8 152.57"/>
  <polyline class="cls-8" points="234.2 176.43 249.41 175.44 247.47 180.52 235.45 181.37"/>
  <circle class="cls-8" cx="231.84" cy="179.26" r="4.49"/>
  <path class="cls-8" d="M238.84,153.08l7.85,4.02,6.05-10.67-1.44-1.44,19.41-40.22s-4.76-4.9-4.33-5.5-27.55,53.8-27.55,53.8Z"/>
  <polygon class="cls-6" points="379.08 140.3 344.31 115.72 343.89 116.36 334.08 109.94 338.71 103.37 348.19 109.44 347.56 110.92 379.54 134.15 379.08 140.3"/>
  <path class="cls-1" d="M255.94,194.78s-21.18-14.4-21.74,5.22"/>
  <path class="cls-12" d="M288.27,218.08s-45.6,32.19-53.36,5.08c-1.27-7.48,0-11.86,0-11.86,0,0-7.48-2.97-6.78-5.22s6.35-7.06,7.34-6.07-1.65-12.2,9.18-9.46l10.82,2.74,2.71,8.27s22.61,18.07,30.09,16.52Z"/>
</svg>