<?xml version="1.0" encoding="UTF-8"?>
<svg id="Layer_1" xmlns="http://www.w3.org/2000/svg" xmlns:xlink="http://www.w3.org/1999/xlink" version="1.1" viewBox="0 0 392.2 188.3">
  <!-- Generator: Adobe Illustrator 29.0.0, SVG Export Plug-In . SVG Version: 2.1.0 Build 186)  -->
  <defs>
    <style>
      .st0 {
        fill: url(#linear-gradient2);
      }

      .st1 {
        fill: url(#linear-gradient1);
      }

      .st2 {
        fill: url(#linear-gradient);
      }

      .st3 {
        fill: red;
      }
    </style>
    <linearGradient id="linear-gradient" x1="65.5" y1="9.1" x2="65.5" y2="65.2" gradientTransform="translate(0 190) scale(1 -1)" gradientUnits="userSpaceOnUse">
      <stop offset="0" stop-color="#fff" stop-opacity="0"/>
      <stop offset="1" stop-color="red"/>
    </linearGradient>
    <linearGradient id="linear-gradient1" x1="192.2" y1="9.5" x2="192.2" y2="65.2" gradientTransform="translate(0 190) scale(1 -1)" gradientUnits="userSpaceOnUse">
      <stop offset="0" stop-color="#fff" stop-opacity="0"/>
      <stop offset="1" stop-color="red"/>
    </linearGradient>
    <linearGradient id="linear-gradient2" x1="319.4" y1="9.5" x2="319.4" y2="65.2" gradientTransform="translate(0 190) scale(1 -1)" gradientUnits="userSpaceOnUse">
      <stop offset="0" stop-color="#fff" stop-opacity="0"/>
      <stop offset="1" stop-color="red"/>
    </linearGradient>
  </defs>
  <rect class="st3" x="21.6" y="72.4" width="31.1" height="48.4" transform="translate(-57.4 54.6) rotate(-45)"/>
  <polygon class="st3" points="87.2 124.8 87.4 124.8 87.3 124.7 87.2 124.8"/>
  <rect class="st3" x="69.2" y="81" width="48.4" height="31.1" transform="translate(-40.9 94.3) rotate(-45)"/>
  <polygon class="st3" points="43.3 124.7 43.2 124.8 43.4 124.8 43.3 124.7"/>
  <polygon class="st3" points="87.2 124.8 87.3 124.7 65.3 102.7 43.3 124.7 43.4 124.8 87.2 124.8"/>
  <path class="st2" d="M87.4,124.8h-44.2s-8,1.4-3.5,3.5c-2.7,2.2,6.8,5.2-8.5,8.5,4.4,1.6-6.6,3.3-5,5.1,2.8,1.7,4.6,3.4-5,5.1-5.5.8-6,1.6-5.9,2.4s-1.6,1.5-1.9,2.2c-4.7.7-1.7,1.4-2.2,2-.5.6,8,1.2,1.6,1.8-9.2.6-4.8,1-4.1,1.5,6.2.4-2.5.8,2.9,1.1-6.7.6-3.6.9-2.4.9-7.7,0-7.8.1-8.8.4s-.6.7,7.7,1.2c.5.5.8,1.1,1.3,1.8-6.4.7,2.8,1.4,5.5,2.3,6,.8,8,1.7,4.3,2.6-4.4.9-6.4,1.8,2.2,2.7,3.6.9.4,1.8,4.4,2.7.6.9,6.8,1.8-.3,2.6-8.5,1.6-5.4,3.1,1.5,4.1-7.2,1,8.2,1.6,4.1,1.6s0-.3,3.9-1c2.2-.6,10.3-1.5-.4-2.6,3.1-.6,3-1.1,2.5-1.8,4.8-.6,3.7-1.3,2.4-2,5-.7,2.4-1.5.4-2.2,1.4-.8,4-1.6,3.2-2.4,3.5-.8,12.7-1.7,3.7-2.5-1-.9,1.8-1.7-.7-2.6-1.1-.9,2.1-1.7,4.1-2.6-3.2-.9,1.9-1.7,3-2.5,9.5-.8,7.7-1.6,6.8-2.4,6.6-.8,1.6-1.5,3.3-2.2-3.7-.7-9.9-1.4-5.2-2-3.9-.6,2.4-1.2,3.6-1.8,5.3-1.1,9.2-2,10.3-2.6s-.7-1-6.8-1c-10.2,0-.8.3,0,1,3.3.3,1.9.7.9,1.1s-.8.9,2.7,1.5c-2.4.6,3.6,1.1,8.7,1.8-4.1.6-1.1,1.3-4.3,2,1.6.7,3.3,1.5,6.9,2.2,3.5.8-5.3,1.6-2.8,2.4-2.7.8,6.8,1.7,1.1,2.5-.7.9,11.7,1.7,7.2,2.6,9.6.6,12,1.1,9.7,1.7,4.3.6,6.3,1.1,0,1.7,5.9.6-7.8,1.1-7.8,1.7,6.5.8,8.7,1.6,11.7,2.4-7.5.8,4.1,1.5-2.1,2.2,1.9,1.4-5,2.7-1.1,3.8,9.5,2.2,8.8,3.6,3.6,3.6s1-.6,4.4-1.6c2.1-1-3.1-2.4,1.3-4.1,2.5-.8,4.9-1.7,5.1-2.6,4.8-.9,8.6-1.8,2.3-2.7,1.2-.9,1.7-1.8,4.7-2.7-5.9-.9.9-1.8-1.4-2.6-6.6-1.6,2-3.1,2.7-4.1-7.6-.5-5.6-.9-.2-1.2-1.6-.3,5.3-.4,3.3-.4,2.7,0,5.1,0,4.2-.2.6-.2-6.3-.4-2.4-.7,7.9-.3,9.9-.7,5.3-1.1,2-.4-8.9-.9-10.7-1.5-3.5-1.1-3.7-2.4-4.6-3.8-5.9-.7-9.6-1.5-4.9-2.2-1.2-.8,2.8-1.6,1.1-2.4-6.6-.8-3.8-1.6-3-2.5s1.7-1.7-2-2.6c7.3-1.7-13.6-3.4-5.1-5.1-10.6-3.3-8.7-6.3-8.5-8.5l-3.6-3.6h0Z"/>
  <rect class="st3" x="145.9" y="72" width="31.1" height="48.4" transform="translate(-20.7 142.4) rotate(-45)"/>
  <polygon class="st3" points="211.2 124.8 212.1 124.8 211.6 124.3 211.2 124.8"/>
  <rect class="st3" x="193.5" y="80.7" width="48.4" height="31.1" transform="translate(-4.3 182.1) rotate(-45)"/>
  <polygon class="st3" points="167.6 124.3 167.1 124.8 168.1 124.8 167.6 124.3"/>
  <path class="st1" d="M212.1,124.8h-44.9l-3.5,3.5c-3.9,2.2-11.2,5.1-8.4,8.4,4.6,1.6-3,3.3-4.8,5,3.9,1.7-10.8,3.4-5.2,5-8.4.8-12.2,1.6-10.8,2.4.1.8,1.2,1.5,4,2.2,1,.7.8,1.4,2.1,2,2,.6,5.1,1.2-3.7,1.8.7,2.2.6,3.5-3.5,3.5s6,.6,0,1.6c4.9.5,2.5,1.1.7,1.8,5.5.7,2,1.4,5.1,2.3-6.3.8-.4,1.7-.3,2.6,7.6.9,10.1,1.8,4.4,2.7-4,.9,8.8,1.8,5.4,2.7,7.5.9,2,1.8,1.1,2.6,9.8,1.6,4.1,3.1,2,4.1,2.1,1-.6,1.6,3.8,1.6s-.4-1.4,3.6-3.6c2.1-.6-4.6-1.1,4.3-1.8,4.5-.6,2.1-1.3,2.1-2,3.4-.7,15.6-1.5,7.4-2.2,2-.8-.4-1.6-5.3-2.4,1.8-.8,4.5-1.7,2.9-2.5,2.4-.9,5.9-1.7.4-2.6,2.7-.9,2.1-1.7,1.1-2.6-.1-.9,3.4-1.7,5.7-2.5,4.8-.8,11.6-1.6,10.1-2.4,3.5-.8,2.3-1.5-7.3-2.2.1-.7-3.8-1.4,2.2-2-.3-.6,1-1.2,3.6-1.8,4.9-2.2,3.7-3.6,3.6-3.6,1.7,0,7.7.3,3.7,1,2,.3,4.4.7,5.1,1.1s-.3.9-5.2,1.5c-.7,1.1-4.7,2.4-.5,3.8.6.7-.4,1.5,1.7,2.2,3.2.8,3,1.6,7.3,2.4,6.4.8,14.5,1.7,8.9,2.5-.3.9-.7,1.7-5.4,2.6-.1.9,2.2,1.7,4.8,2.6,2,.9,4.4,1.7,1.8,2.5,1.4.8-2.1,1.6,3.3,2.4-1.4.8,11.4,1.5-1.1,2.2,2.1.7,2.6,1.4,1.8,2,3.7.6,2.2,1.2,4.5,1.8-.9,1.1,1.6,2,5,2.6,6.9.6-5.4,1-1.5,1s2.2-.6,2.5-1.6c9.5-.5,4-1.1,1.7-1.8,1.3-.7-.6-1.4,1.5-2.3-4.6-.8,2-1.7,1.8-2.6,0-.9,2.6-1.8,3.9-2.7-.9-.9,8-1.8,4.3-2.7,1.7-.9,1.1-1.8.5-2.6-3.8-.8-2.8-1.6-1.3-2.3,3-.7,4.1-1.3,6.4-1.8,4.4-.5,7.4-.9,5.1-1.2,1.6-.3-7.7-.4-4.6-.4-.2,0-.2,0,3.7-.2,2-.2,1-.4-4.8-.7,2.5-.3,0-.7-.3-1.1.6-.4-4.5-.9-2.1-1.5-2.9-1.1,2.4-2.4-2.2-3.8.7-1.4-4.2-3-6.2-4.6-1.1-1.6-22.2-3.3-6.4-5-2-1.7,5.4-3.4-3.5-5-2.3-3.2-4.4-6.2-8.4-8.4l-3.5-3.5h0Z"/>
  <polygon class="st3" points="211.2 124.8 211.6 124.3 189.6 102.3 167.6 124.3 168.1 124.8 211.2 124.8"/>
  <rect class="st3" x="273.8" y="72" width="31.1" height="48.4" transform="translate(16.8 232.8) rotate(-45)"/>
  <polygon class="st3" points="340 124.8 339.5 124.3 339 124.8 340 124.8"/>
  <rect class="st3" x="321.4" y="80.6" width="48.4" height="31.1" transform="translate(33.2 272.5) rotate(-45)"/>
  <polygon class="st3" points="295.4 124.3 294.9 124.8 295.9 124.8 295.4 124.3"/>
  <polygon class="st3" points="339 124.8 339.5 124.3 317.5 102.2 295.4 124.3 295.9 124.8 339 124.8"/>
  <path class="st0" d="M340,124.8h-45l-3.5,3.5-3.8,3.8c-4.3,1.4,1.8,3-4.6,4.6.4,1.6-2.8,3.3-6.1,5-9.2,1.7.9,3.4-3.9,5,1,.8-1.3,1.6-3.4,2.4s-4,1.5-2,2.2c1.6.7,4.2,1.4,2.4,2-3.8.6-2.5,1.2-5.3,1.8-.1.4,5.4.7,7.8,1-.9.3.5.6-3.2.9.7.3,1.7.5,4.1.7,4.1.2,2.9.4-.8.5-7.8.1-8.3.2-7.3.3,2.3,0-1.1.1-4,.1-6.3,0-.4.1-1,.4,4.6.3,12.8.7,7.9,1.2,2.4,1,7.4,2.4-1.2,4.1,5,.8,6.7,1.7,3.6,2.6.1.9-2.2,1.8,1,2.7.4.9-2.2,1.8,2,2.7,0,.9,5.7,1.8,4,2.6.9.8,2.3,1.6,5.3,2.3,4.1.7-5.5,1.3.1,1.8,4.7,1-3,1.6.3,1.6s11.5,0,6.4-.2c3-.2,2.5-.4-1.2-.7-8.1-.6-4.7-1.5-1.6-2.6-11.5-.6-10.2-1.1-9-1.8,6.9-.6,14.3-1.3,8-2,6.3-.7,1.3-1.5,4.8-2.2-3-.8.3-1.6,4.6-2.4-1.1-.8,2-1.7-1.9-2.5-3.2-.9,1.8-1.7,4.2-2.6,5-.9-.8-1.7,5.7-2.6,6.9-.9,4.8-1.7,2.1-2.5.5-1.6-2.8-3.2,2.5-4.6,2.8-.7,5.7-1.4,5.5-2,.7-.6.6-1.2.4-1.8-5.2-1.1-2.4-2,6.5-2.6-1.1-.6-.4-1-3-1s-1.5.3-.9,1c-2.6.6,3.4,1.5,4.4,2.6,3.5.6,6,1.1,7.2,1.8s1.7,1.3-.3,2c2.1,1.4-.9,3,1.6,4.6-6.2.8,9.2,1.7,2.3,2.5-2.3.9-.9,1.7,4.6,2.6-8.4.9-3.7,1.7-3.2,2.6,1.6.9,4.8,1.7,6.5,2.5,7.2,1.6,10,3.2,1.9,4.6,0,.7,7.4,1.4,1.3,2,.9.6,1.4,1.2,5.3,1.8,9.1,1.1,2.9,2,7.3,2.6-6.6.6-.6,1-3.8,1,2.1,0,3.9-.6-.2-1.6-4-.5,1.6-1.1-3.9-1.8-8.1-.7-1.3-1.4,9.7-2.3-10.2-.8-12.5-1.7-6.4-2.6-2.2-.9,2.3-1.8,8.8-2.7,4.9-.9,14-1.8,7-2.7,5.9-.9,2.2-1.8,1.1-2.6,2.7-1.6-1.5-3.1,1.8-4.1,4.2-1,3.8-1.6,3.9-1.6-.3,0,5.1,0,6.6-.2,1.1-.2-3.7-.4-.7-.7-5-.3-.7-.7-.3-1.1-5-.4-6.6-.9-9.1-1.5-5.7-.5-1.4-1.1-2.1-1.8,1.1-.6,2.5-1.3.3-2-.9-1.4-5.6-3-6.6-4.6-7.4-1.6,4.4-3.3-5.6-5-7.8-1.7-22.4-3.4-4.4-5-12.8-1.6-8.9-3.2-4.6-4.6l-3.8-3.8-3.5-3.5h0Z"/>
  <g>
    <path d="M94.6,8.7h-6.5v-2c0-.9,0-1.5-.2-1.8-.2-.2-.4-.4-.8-.4s-.7.2-.9.5-.3.9-.3,1.6.1,1.6.4,2c.2.4.9,1,2,1.6,3.1,1.9,5.1,3.4,5.9,4.6.8,1.2,1.2,3.1,1.2,5.7s-.2,3.3-.7,4.2c-.4.9-1.3,1.7-2.6,2.3-1.3.6-2.8.9-4.5.9s-3.5-.4-4.8-1.1-2.2-1.6-2.6-2.7c-.4-1.1-.6-2.6-.6-4.7v-1.8h6.5v3.3c0,1,0,1.6.3,1.9s.5.4,1,.4.8-.2,1-.5c.2-.4.3-.9.3-1.6,0-1.6-.2-2.6-.7-3.1-.4-.5-1.5-1.3-3.3-2.4-1.7-1.1-2.9-2-3.4-2.5s-1-1.2-1.4-2.2-.6-2.1-.6-3.5c0-2.1.3-3.6.8-4.5.5-1,1.4-1.7,2.6-2.2,1.2-.5,2.6-.8,4.2-.8s3.4.3,4.6.9c1.3.6,2.1,1.3,2.5,2.2s.6,2.4.6,4.5v1.1h0Z"/>
    <path d="M111.9,13.7h-6.3v-2.5c0-.9,0-1.5-.2-1.8-.1-.3-.4-.5-.8-.5s-.7.1-.8.4-.2.9-.2,1.9v10.4c0,.8,0,1.4.3,1.8.2.4.5.6.9.6s.8-.2.9-.6c.2-.4.2-1.2.2-2.3v-2.6h6c0,1.8,0,3.1-.2,4s-.5,1.8-1.1,2.7c-.6.9-1.4,1.6-2.4,2.1-1,.5-2.2.7-3.7.7s-3.4-.3-4.5-1-1.9-1.5-2.3-2.7-.7-2.8-.7-5v-6.3c0-1.9.2-3.3.6-4.2.4-.9,1.2-1.8,2.4-2.6s2.7-1.1,4.5-1.1,3.2.4,4.5,1.1c1.2.7,2.1,1.7,2.5,2.8s.6,2.7.6,4.8h0Z"/>
    <path d="M120.7.6v6.1c.6-.5,1.2-.9,1.9-1.2.7-.3,1.4-.4,2.2-.4,1.2,0,2.2.3,3,.9.8.6,1.3,1.3,1.5,2.1s.3,2.2.3,4.3v15.2h-6.7v-15.5c0-1.3,0-2.1-.2-2.5-.1-.4-.4-.6-.8-.6s-.7.2-.8.6c-.1.4-.2,1.1-.2,2.2v15.7h-6.7V.6s6.7,0,6.7,0Z"/>
    <path d="M146.9,13.1v5.4c0,2-.1,3.4-.3,4.4-.2.9-.6,1.8-1.3,2.6s-1.5,1.4-2.5,1.8c-1,.4-2.2.6-3.5.6s-2.7-.2-3.8-.5-1.8-.8-2.4-1.5c-.6-.7-1-1.5-1.2-2.4-.2-.9-.4-2.3-.4-4.2v-5.6c0-2.1.2-3.6.7-4.8.4-1.2,1.2-2.1,2.4-2.8,1.1-.7,2.6-1,4.4-1s2.8.2,3.9.7,1.9,1,2.5,1.8,1,1.5,1.2,2.2.3,1.9.3,3.5h0ZM140.2,11.5c0-1.1,0-1.8-.2-2.1s-.4-.4-.8-.4-.7.1-.8.4c-.1.3-.2,1-.2,2.1v9.9c0,1,0,1.7.2,2s.4.5.8.5.7-.1.8-.4c.1-.3.2-.9.2-1.9v-10.2h0Z"/>
    <path d="M164.3,13.1v5.4c0,2-.1,3.4-.3,4.4-.2.9-.6,1.8-1.3,2.6s-1.5,1.4-2.5,1.8c-1,.4-2.2.6-3.5.6s-2.7-.2-3.8-.5-1.8-.8-2.4-1.5c-.6-.7-1-1.5-1.2-2.4-.2-.9-.4-2.3-.4-4.2v-5.6c0-2.1.2-3.6.7-4.8.4-1.2,1.2-2.1,2.4-2.8,1.1-.7,2.6-1,4.4-1s2.8.2,3.9.7,1.9,1,2.5,1.8,1,1.5,1.2,2.2.3,1.9.3,3.5h0ZM157.6,11.5c0-1.1,0-1.8-.2-2.1s-.4-.4-.8-.4-.7.1-.8.4c-.1.3-.2,1-.2,2.1v9.9c0,1,0,1.7.2,2s.4.5.8.5.7-.1.8-.4c.1-.3.2-.9.2-1.9v-10.2h0Z"/>
    <path d="M173.4,5.4v2c.4-.8,1-1.4,1.7-1.8s1.5-.6,2.4-.6,2.1.3,2.8.8c.7.5,1.2,1.2,1.4,2s.3,2.2.3,4.1v15.4h-6.7v-15.3c0-1.5,0-2.4-.1-2.8s-.4-.5-.8-.5-.8.2-.9.6c-.1.4-.2,1.4-.2,3.1v14.9h-6.7V5.4h6.8Z"/>
    <path d="M205.6.6v26.9h-6.7v-1.6c-.6.7-1.3,1.2-2,1.5s-1.4.5-2.2.5-1.9-.3-2.7-.8c-.8-.5-1.2-1.2-1.5-1.9s-.3-1.9-.3-3.5v-10.3c0-1.7.1-2.9.3-3.6.2-.7.7-1.3,1.5-1.9.8-.5,1.7-.8,2.8-.8s1.6.2,2.3.4c.7.3,1.3.8,1.9,1.3V.6h6.7ZM198.9,11c0-.8,0-1.4-.2-1.6s-.4-.4-.8-.4-.7.1-.8.4c-.1.2-.2.8-.2,1.7v10.8c0,.9,0,1.5.2,1.8s.4.4.8.4.7-.2.9-.5.2-1.1.2-2.3v-10.2h0Z"/>
    <path d="M223.1,13.1v5.4c0,2-.1,3.4-.3,4.4-.2.9-.6,1.8-1.3,2.6-.6.8-1.5,1.4-2.5,1.8-1,.4-2.2.6-3.5.6s-2.7-.2-3.8-.5-1.8-.8-2.4-1.5c-.6-.7-1-1.5-1.2-2.4-.2-.9-.4-2.3-.4-4.2v-5.6c0-2.1.2-3.6.7-4.8.4-1.2,1.2-2.1,2.4-2.8s2.6-1,4.4-1,2.8.2,3.9.7,1.9,1,2.5,1.8,1,1.5,1.2,2.2.3,1.9.3,3.5h0ZM216.4,11.5c0-1.1,0-1.8-.2-2.1s-.4-.4-.8-.4-.7.1-.8.4c-.1.3-.2,1-.2,2.1v9.9c0,1,0,1.7.2,2s.4.5.8.5.7-.1.8-.4c.1-.3.2-.9.2-1.9v-10.2h0Z"/>
    <path d="M240.5,13.1v5.4c0,2-.1,3.4-.3,4.4-.2.9-.6,1.8-1.3,2.6-.6.8-1.5,1.4-2.5,1.8-1,.4-2.2.6-3.5.6s-2.7-.2-3.8-.5-1.8-.8-2.4-1.5c-.6-.7-1-1.5-1.2-2.4-.2-.9-.4-2.3-.4-4.2v-5.6c0-2.1.2-3.6.7-4.8.4-1.2,1.2-2.1,2.4-2.8s2.6-1,4.4-1,2.8.2,3.9.7,1.9,1,2.5,1.8,1,1.5,1.2,2.2.3,1.9.3,3.5h0ZM233.8,11.5c0-1.1,0-1.8-.2-2.1s-.4-.4-.8-.4-.7.1-.8.4c-.1.3-.2,1-.2,2.1v9.9c0,1,0,1.7.2,2s.4.5.8.5.7-.1.8-.4c.1-.3.2-.9.2-1.9v-10.2h0Z"/>
    <path d="M249.4,5.4l-.3,2.9c1-2.1,2.4-3.2,4.2-3.3v7.8c-1.2,0-2.1.2-2.7.5s-.9.8-1.1,1.4c-.1.6-.2,2-.2,4.1v8.7h-6.7V5.4h6.7Z"/>
    <path d="M276.1.6v26.9h-6.7v-1.6c-.6.7-1.3,1.2-2,1.5s-1.5.5-2.2.5-1.9-.3-2.7-.8-1.2-1.2-1.5-1.9-.3-1.9-.3-3.5v-10.3c0-1.7.1-2.9.3-3.6.2-.7.7-1.3,1.5-1.9.8-.5,1.7-.8,2.8-.8s1.6.2,2.3.4c.7.3,1.3.8,1.9,1.3V.6h6.7ZM269.4,11c0-.8,0-1.4-.2-1.6-.1-.3-.4-.4-.8-.4s-.7.1-.8.4c-.1.2-.2.8-.2,1.7v10.8c0,.9,0,1.5.2,1.8s.4.4.8.4.7-.2.9-.5.2-1.1.2-2.3v-10.2h0Z"/>
    <path d="M293.7,16.8h-8.7v4.8c0,1,0,1.6.2,1.9.1.3.4.4.8.4s.9-.2,1-.6c.2-.4.3-1.1.3-2.2v-2.9h6.4v1.6c0,1.4,0,2.4-.3,3.1s-.6,1.5-1.2,2.3-1.4,1.5-2.4,1.9-2.2.6-3.6.6-2.7-.2-3.8-.6-1.9-1-2.5-1.7c-.6-.7-1-1.5-1.2-2.4s-.4-2.1-.4-3.7v-6.4c0-1.9.3-3.4.8-4.6s1.4-2,2.6-2.6c1.2-.6,2.5-.9,4.1-.9s3.4.4,4.7,1.1c1.2.7,2.1,1.7,2.6,2.8.5,1.2.7,2.8.7,5v2.9h0ZM287,13.2v-1.6c0-1.1,0-1.9-.2-2.2s-.4-.5-.8-.5-.8.1-.9.4-.2,1-.2,2.3v1.6h2Z"/>
    <path d="M41.3,30.6l4,26.9h-7.1l-.4-4.8h-2.5l-.4,4.8h-7.2l3.6-26.9h10.1ZM37.6,47.8c-.3-3-.7-6.8-1.1-11.3-.7,5.2-1.2,8.9-1.3,11.3h2.4,0Z"/>
    <path d="M52.9,35.4v2.1c.4-.8,1-1.5,1.7-1.9s1.5-.6,2.5-.6c1.8,0,3.2.8,4.2,2.5.6-.8,1.2-1.5,1.9-1.9s1.5-.6,2.4-.6,2.1.3,2.8.8c.8.5,1.2,1.2,1.4,2s.3,2.1.3,3.9v15.7h-6.5v-14.4c0-1.9,0-3-.2-3.5-.1-.5-.4-.7-.9-.7s-.8.2-.9.7-.2,1.6-.2,3.5v14.4h-6.5v-14c0-2.2,0-3.5-.2-3.9s-.4-.7-.9-.7-.5.1-.8.3-.3.5-.3.8c0,.3,0,1,0,2.1v15.3h-6.5v-22h6.6,0Z"/>
    <path d="M86.2,42.5h-5.9v-1.2c0-1,0-1.7-.2-1.9-.1-.3-.4-.4-.9-.4s-.7.1-.8.4c-.2.2-.3.6-.3,1.1s0,1.2.1,1.5c0,.3.4.7.8,1s1.4.9,2.9,1.6c1.9,1,3.2,1.8,3.8,2.7.6.8.9,2.1.9,3.7s-.2,3.2-.7,4.1-1.2,1.6-2.3,2.1c-1.1.5-2.4.7-3.9.7s-3.2-.3-4.4-.8-2-1.2-2.5-2.2c-.4-.9-.7-2.3-.7-4.1v-1.1h5.9v1.4c0,1.2,0,2,.2,2.3.2.3.4.5.9.5s.8-.1,1-.4.3-.7.3-1.5-.1-1.7-.4-2-1.6-1-3.9-2.4c-2-1.1-3.2-2.1-3.6-3-.4-.9-.7-2-.7-3.2,0-1.8.2-3.1.7-3.9.5-.8,1.2-1.5,2.4-1.9,1.1-.5,2.4-.7,3.9-.7s2.7.2,3.7.6c1,.4,1.8.9,2.4,1.5s.9,1.2,1,1.7.2,1.3.2,2.4v1.3h0Z"/>
    <path d="M95.6,32.5v3.5h1.8v3.5h-1.8v11.8c0,1.5,0,2.3.2,2.4s.8.2,1.9.2v3.5h-2.7c-1.5,0-2.6,0-3.3-.2-.7-.1-1.2-.4-1.7-.9-.5-.5-.8-1-.9-1.6-.1-.6-.2-2-.2-4.2v-11.2h-1.4v-3.5h1.4v-3.5h6.7Z"/>
    <path d="M114,46.8h-8.7v4.8c0,1,0,1.6.2,1.9.1.3.4.4.8.4s.8-.2,1-.6.3-1.1.3-2.2v-2.9h6.4v1.6c0,1.4,0,2.4-.3,3.1-.2.7-.6,1.5-1.2,2.3s-1.4,1.5-2.4,1.9-2.2.6-3.6.6-2.7-.2-3.8-.6c-1.1-.4-1.9-1-2.5-1.7-.6-.7-1-1.5-1.2-2.4s-.3-2.1-.3-3.7v-6.4c0-1.9.3-3.4.8-4.6.5-1.1,1.4-2,2.6-2.6,1.2-.6,2.6-.9,4.1-.9s3.4.4,4.7,1.1c1.2.7,2.1,1.7,2.6,2.8s.7,2.8.7,5v2.9h0ZM107.3,43.2v-1.6c0-1.1,0-1.9-.2-2.2-.1-.3-.4-.5-.8-.5s-.8.1-.9.4-.2,1-.2,2.3v1.6h2Z"/>
    <path d="M122.9,35.4l-.3,2.9c1-2.1,2.4-3.2,4.2-3.3v7.8c-1.2,0-2.1.2-2.7.5s-.9.8-1.1,1.4c-.1.6-.2,2-.2,4.1v8.7h-6.7v-22h6.7Z"/>
    <path d="M143.6,30.6v26.9h-6.7v-1.6c-.6.7-1.3,1.2-2,1.5-.7.3-1.4.5-2.2.5s-1.9-.3-2.7-.8-1.2-1.2-1.5-1.9-.3-1.9-.3-3.5v-10.3c0-1.7.1-2.9.3-3.6.2-.7.7-1.3,1.5-1.9.8-.5,1.7-.8,2.8-.8s1.6.2,2.3.5,1.3.8,1.9,1.3v-6.2h6.7ZM136.9,41c0-.8,0-1.3-.2-1.6-.1-.3-.4-.4-.8-.4s-.7.1-.8.4-.2.8-.2,1.7v10.8c0,.9,0,1.5.2,1.8s.4.4.8.4.7-.2.9-.5c.1-.3.2-1.1.2-2.3v-10.2h0Z"/>
    <path d="M152.1,44h-6.3v-1.5c0-1.7.2-3,.6-3.9s1.2-1.7,2.4-2.5c1.2-.7,2.7-1.1,4.6-1.1s4,.4,5.1,1.2c1.1.8,1.8,1.8,2.1,3,.2,1.2.4,3.6.4,7.2v11.1h-6.5v-2c-.4.8-.9,1.4-1.6,1.8s-1.4.6-2.3.6-2.2-.3-3.2-1-1.5-2.1-1.5-4.3v-1.8c0-1.7.3-2.8.8-3.4s1.8-1.3,3.9-2.1c2.2-.9,3.4-1.4,3.5-1.7.1-.3.2-.9.2-1.8s0-1.9-.3-2.2-.5-.5-.9-.5-.7.2-.9.4c-.1.3-.2,1-.2,2.3v2.3h0ZM154.2,47c-1.1.8-1.7,1.4-1.9,2-.2.5-.3,1.3-.3,2.3s0,1.9.2,2.2.4.5.9.5.7-.1.8-.4.2-.9.2-2v-4.5h0Z"/>
    <path d="M169.8,35.4v2.1c.4-.8,1-1.5,1.7-1.9s1.5-.6,2.5-.6c1.8,0,3.2.8,4.2,2.5.6-.8,1.2-1.5,1.9-1.9s1.5-.6,2.4-.6,2.1.3,2.8.8c.8.5,1.2,1.2,1.4,2s.3,2.1.3,3.9v15.7h-6.5v-14.4c0-1.9,0-3-.2-3.5-.1-.5-.4-.7-.9-.7s-.8.2-.9.7-.2,1.6-.2,3.5v14.4h-6.5v-14c0-2.2,0-3.5-.2-3.9s-.4-.7-.9-.7-.6.1-.8.3c-.2.2-.3.5-.4.8s0,1,0,2.1v15.3h-6.5v-22h6.6,0Z"/>
    <path d="M203.1,42.5h-5.9v-1.2c0-1,0-1.7-.2-1.9-.1-.3-.4-.4-.9-.4s-.7.1-.9.4-.3.6-.3,1.1,0,1.2.1,1.5c0,.3.4.7.9,1s1.4.9,2.9,1.6c1.9,1,3.2,1.8,3.8,2.7.6.8.9,2.1.9,3.7s-.2,3.2-.7,4.1-1.2,1.6-2.3,2.1-2.4.7-3.9.7-3.2-.3-4.4-.8-2-1.2-2.5-2.2c-.4-.9-.7-2.3-.7-4.1v-1.1h5.9v1.4c0,1.2,0,2,.2,2.3.1.3.4.5.9.5s.8-.1,1-.4.3-.7.3-1.5-.1-1.7-.4-2-1.6-1-3.9-2.4c-2-1.1-3.2-2.1-3.6-3-.4-.9-.6-2-.6-3.2,0-1.8.2-3.1.7-3.9.5-.8,1.2-1.5,2.4-1.9,1.1-.5,2.4-.7,3.9-.7s2.7.2,3.7.6c1,.4,1.8.9,2.4,1.5s.9,1.2,1,1.7.2,1.3.2,2.4v1.3h0Z"/>
    <path d="M220.6,46.8h-8.7v4.8c0,1,0,1.6.2,1.9.1.3.4.4.8.4s.9-.2,1-.6.3-1.1.3-2.2v-2.9h6.4v1.6c0,1.4,0,2.4-.3,3.1s-.6,1.5-1.2,2.3-1.4,1.5-2.4,1.9-2.2.6-3.6.6-2.7-.2-3.8-.6-1.9-1-2.5-1.7c-.6-.7-1-1.5-1.2-2.4s-.4-2.1-.4-3.7v-6.4c0-1.9.3-3.4.8-4.6s1.4-2,2.6-2.6c1.2-.6,2.6-.9,4.1-.9s3.4.4,4.7,1.1c1.2.7,2.1,1.7,2.6,2.8s.7,2.8.7,5v2.9h0ZM213.9,43.2v-1.6c0-1.1,0-1.9-.2-2.2s-.4-.5-.8-.5-.8.1-.9.4-.2,1-.2,2.3v1.6h2,0Z"/>
    <path d="M244,35.4v17c0,2.3,0,3.8-.2,4.4s-.5,1.4-1.1,2.1-1.5,1.3-2.7,1.7c-1.1.4-2.6.6-4.3.6s-3.9-.4-5.1-1.1c-1.3-.7-2-2.2-2-4.3h6.5c0,1,.4,1.5,1.1,1.5s.9-.2,1-.5.2-.9.2-1.9v-1.7c-.6.5-1.2.9-1.8,1.2-.6.3-1.3.4-2,.4-1.2,0-2.2-.2-3-.7-.8-.5-1.3-1.1-1.6-1.9-.3-.8-.4-1.9-.4-3.4v-8c0-2.1.4-3.6,1.1-4.5.8-.9,1.9-1.4,3.4-1.4s1.6.2,2.3.5c.7.3,1.3.9,1.9,1.5l.5-1.7h6.2ZM237.3,41.3c0-1,0-1.7-.2-1.9-.1-.3-.4-.4-.8-.4s-.7.2-.8.5c-.2.3-.2.9-.2,1.9v7.4c0,1,0,1.6.2,1.9.1.3.4.4.8.4s.7-.2.9-.5.2-1.2.2-2.4v-6.8h0Z"/>
    <path d="M253.1,35.4l-.3,2.9c1-2.1,2.4-3.2,4.2-3.3v7.8c-1.2,0-2.1.2-2.7.5s-.9.8-1.1,1.4c-.1.6-.2,2-.2,4.1v8.7h-6.7v-22h6.7Z"/>
    <path d="M264.6,44h-6.3v-1.5c0-1.7.2-3,.6-3.9.4-.9,1.2-1.7,2.4-2.5,1.2-.7,2.7-1.1,4.6-1.1s4,.4,5.1,1.2,1.8,1.8,2.1,3c.2,1.2.4,3.6.4,7.2v11.1h-6.5v-2c-.4.8-.9,1.4-1.6,1.8s-1.4.6-2.3.6-2.2-.3-3.2-1-1.5-2.1-1.5-4.3v-1.8c0-1.7.3-2.8.8-3.4s1.8-1.3,3.9-2.1c2.2-.9,3.4-1.4,3.5-1.7s.2-.9.2-1.8,0-1.9-.3-2.2-.5-.5-.9-.5-.7.2-.9.4c-.1.3-.2,1-.2,2.3v2.3h0ZM266.7,47c-1.1.8-1.7,1.4-1.9,2-.2.5-.3,1.3-.3,2.3s0,1.9.2,2.2c.1.3.5.5.9.5s.7-.1.8-.4.2-.9.2-2v-4.5h0Z"/>
    <path d="M290.5,43.7h-6.3v-2.5c0-.9,0-1.5-.2-1.8s-.4-.5-.8-.5-.6.1-.8.4-.2.9-.2,1.9v10.4c0,.8.1,1.4.3,1.8.2.4.5.6.9.6s.8-.2.9-.6.2-1.2.2-2.3v-2.6h6c0,1.8,0,3.1-.2,4-.1.9-.5,1.8-1.1,2.7-.6.9-1.4,1.6-2.5,2.1s-2.2.7-3.7.7-3.4-.3-4.5-1-1.9-1.5-2.4-2.7c-.5-1.2-.7-2.8-.7-5v-6.3c0-1.9.2-3.3.6-4.2.4-1,1.2-1.8,2.4-2.5s2.7-1.1,4.5-1.1,3.2.4,4.5,1.1c1.2.7,2.1,1.7,2.5,2.8s.6,2.7.6,4.8h0Z"/>
    <path d="M299.2,30.6v6.1c.6-.5,1.2-.9,1.9-1.2.7-.3,1.4-.4,2.1-.4,1.2,0,2.2.3,3,.9.8.6,1.3,1.3,1.5,2.1.2.8.3,2.2.3,4.3v15.2h-6.7v-15.5c0-1.3,0-2.1-.2-2.5-.1-.4-.4-.5-.9-.5s-.7.2-.8.6c-.1.4-.2,1.1-.2,2.2v15.7h-6.7v-26.9h6.7Z"/>
    <path d="M317.4,32.5v3.5h1.8v3.5h-1.8v11.8c0,1.5,0,2.3.2,2.4.1.2.8.2,1.9.2v3.5h-2.7c-1.5,0-2.6,0-3.3-.2-.6-.1-1.2-.4-1.7-.9-.5-.5-.8-1-.9-1.6-.1-.6-.2-2-.2-4.2v-11.2h-1.4v-3.5h1.4v-3.5h6.7Z"/>
    <path d="M335.9,46.8h-8.7v4.8c0,1,0,1.6.2,1.9.1.3.4.4.8.4s.9-.2,1-.6c.2-.4.3-1.1.3-2.2v-2.9h6.4v1.6c0,1.4,0,2.4-.3,3.1s-.6,1.5-1.2,2.3-1.4,1.5-2.4,1.9-2.2.6-3.6.6-2.7-.2-3.8-.6-1.9-1-2.5-1.7c-.6-.7-1-1.5-1.2-2.4s-.4-2.1-.4-3.7v-6.4c0-1.9.3-3.4.8-4.6s1.4-2,2.6-2.6c1.2-.6,2.5-.9,4.1-.9s3.4.4,4.7,1.1c1.2.7,2.1,1.7,2.6,2.8.5,1.2.7,2.8.7,5v2.9h0ZM329.2,43.2v-1.6c0-1.1,0-1.9-.2-2.2s-.4-.5-.8-.5-.8.1-.9.4-.2,1-.2,2.3v1.6h2Z"/>
    <path d="M344.9,35.4v2c.4-.8,1-1.4,1.7-1.8.7-.4,1.5-.6,2.4-.6s2.1.3,2.8.8,1.2,1.2,1.4,2,.3,2.2.3,4.1v15.4h-6.7v-15.3c0-1.5,0-2.4-.1-2.8s-.4-.5-.8-.5-.8.2-.9.6-.2,1.4-.2,3.1v14.9h-6.7v-22h6.8Z"/>
  </g>
</svg>